<svg width="176" height="100" viewBox="0 0 176 100" fill="none" xmlns="http://www.w3.org/2000/svg">
<g id="break3">
<g id="Galho3">
<path id="Ellipse 53" d="M164.186 69.2328C160.025 68.4977 157.055 65.6245 157.055 65.6245C157.055 65.6245 161.307 64.0274 164.991 64.6783C168.674 65.3291 175.82 67.643 175.598 68.9007C175.375 70.1584 168.347 69.9679 164.186 69.2328Z" fill="black"/>
<g id="Group 8">
<path id="Ellipse 53_2" d="M144.741 67.7037C143.499 65.8099 143.529 63.595 143.529 63.595C143.529 63.595 145.714 64.6677 146.814 66.3445C147.913 68.0213 149.635 71.66 149.063 72.0353C148.49 72.4107 145.982 69.5975 144.741 67.7037Z" fill="black"/>
<path id="Ellipse 54" d="M146.054 59.8059C144.266 61.1959 143.578 63.3013 143.578 63.3013C143.578 63.3013 145.993 62.9936 147.576 61.7628C149.158 60.5321 151.965 57.6465 151.545 57.1061C151.125 56.5657 147.842 58.4158 146.054 59.8059Z" fill="black"/>
</g>
<g id="Group 9">
<path id="Ellipse 53_3" d="M153.171 68.8485C152.011 67.0798 152.039 65.0113 152.039 65.0113C152.039 65.0113 154.08 66.0131 155.107 67.5791C156.134 69.1451 157.742 72.5433 157.207 72.8939C156.673 73.2444 154.33 70.6172 153.171 68.8485Z" fill="black"/>
<path id="Ellipse 54_2" d="M154.397 61.4727C152.728 62.771 152.085 64.7372 152.085 64.7372C152.085 64.7372 154.34 64.4498 155.818 63.3004C157.297 62.151 159.918 59.4561 159.526 58.9514C159.133 58.4467 156.067 60.1745 154.397 61.4727Z" fill="black"/>
</g>
<g id="Group 10">
<path id="Ellipse 53_4" d="M134.268 65.955C133.08 64.1438 133.109 62.0256 133.109 62.0256C133.109 62.0256 135.199 63.0514 136.25 64.6551C137.302 66.2587 138.949 69.7386 138.401 70.0976C137.854 70.4566 135.455 67.7662 134.268 65.955Z" fill="black"/>
<path id="Ellipse 54_3" d="M135.524 58.4018C133.814 59.7312 133.156 61.7447 133.156 61.7447C133.156 61.7447 135.465 61.4504 136.979 60.2734C138.493 59.0963 141.177 56.3366 140.776 55.8198C140.374 55.303 137.234 57.0724 135.524 58.4018Z" fill="black"/>
</g>
<g id="Group 11">
<path id="Ellipse 53_5" d="M124.231 64.3589C123.116 62.6592 123.143 60.6714 123.143 60.6714C123.143 60.6714 125.105 61.6341 126.091 63.139C127.078 64.6439 128.624 67.9097 128.11 68.2465C127.596 68.5834 125.345 66.0586 124.231 64.3589Z" fill="black"/>
<path id="Ellipse 54_4" d="M125.409 57.2708C123.805 58.5184 123.187 60.4079 123.187 60.4079C123.187 60.4079 125.354 60.1318 126.775 59.0272C128.196 57.9226 130.715 55.3328 130.338 54.8478C129.961 54.3627 127.014 56.0232 125.409 57.2708Z" fill="black"/>
</g>
<g id="Group 12">
<path id="Ellipse 53_6" d="M104.265 61.7832C103.105 60.0148 103.133 57.9466 103.133 57.9466C103.133 57.9466 105.174 58.9482 106.201 60.514C107.227 62.0797 108.835 65.4775 108.301 65.828C107.766 66.1785 105.424 63.5516 104.265 61.7832Z" fill="black"/>
<path id="Ellipse 54_5" d="M105.491 54.4084C103.822 55.7065 103.179 57.6724 103.179 57.6724C103.179 57.6724 105.434 57.3851 106.912 56.2358C108.39 55.0866 111.011 52.3921 110.619 51.8874C110.227 51.3828 107.161 53.1104 105.491 54.4084Z" fill="black"/>
</g>
<g id="Group 15">
<path id="Ellipse 53_7" d="M76.5499 60.6142C75.1061 58.412 75.1409 55.8365 75.1409 55.8365C75.1409 55.8365 77.6822 57.0839 78.9606 59.0337C80.239 60.9835 82.2415 65.2147 81.5758 65.6511C80.9102 66.0876 77.9938 62.8164 76.5499 60.6142Z" fill="black"/>
<path id="Ellipse 54_6" d="M78.0771 51.4305C75.9982 53.0469 75.1977 55.4951 75.1977 55.4951C75.1977 55.4951 78.0059 55.1373 79.8465 53.7061C81.6871 52.275 84.9512 48.9195 84.4626 48.2911C83.974 47.6627 80.1559 49.8141 78.0771 51.4305Z" fill="black"/>
</g>
<g id="Group 13">
<path id="Ellipse 53_8" d="M113.666 63.1438C112.502 61.3683 112.53 59.2919 112.53 59.2919C112.53 59.2919 114.579 60.2975 115.609 61.8695C116.64 63.4415 118.254 66.8528 117.718 67.2046C117.181 67.5565 114.83 64.9192 113.666 63.1438Z" fill="black"/>
<path id="Ellipse 54_7" d="M114.897 55.7397C113.221 57.0428 112.576 59.0166 112.576 59.0166C112.576 59.0166 114.84 58.7281 116.324 57.5743C117.807 56.4205 120.439 53.7153 120.045 53.2086C119.651 52.702 116.573 54.4365 114.897 55.7397Z" fill="black"/>
</g>
<g id="Group 16">
<path id="Ellipse 53_9" d="M86.5156 61.0071C85.1418 58.9118 85.1749 56.4614 85.1749 56.4614C85.1749 56.4614 87.5929 57.6481 88.8092 59.5033C90.0255 61.3585 91.9309 65.3842 91.2975 65.7995C90.6641 66.2148 87.8894 63.1024 86.5156 61.0071Z" fill="black"/>
<path id="Ellipse 54_8" d="M87.9686 52.2692C85.9907 53.8072 85.229 56.1365 85.229 56.1365C85.229 56.1365 87.9009 55.7961 89.6521 54.4344C91.4034 53.0727 94.509 49.8802 94.0441 49.2823C93.5792 48.6844 89.9465 50.7313 87.9686 52.2692Z" fill="black"/>
</g>
<g id="Group 14">
<path id="Ellipse 53_10" d="M94.9332 61.8123C93.5086 59.6394 93.5429 57.0982 93.5429 57.0982C93.5429 57.0982 96.0504 58.3289 97.3118 60.2528C98.5732 62.1766 100.549 66.3516 99.8923 66.7822C99.2355 67.2128 96.3579 63.9852 94.9332 61.8123Z" fill="black"/>
<path id="Ellipse 54_9" d="M96.44 52.7507C94.3888 54.3456 93.599 56.7612 93.599 56.7612C93.599 56.7612 96.3698 56.4081 98.1859 54.996C100.002 53.5839 103.223 50.2731 102.741 49.6531C102.259 49.033 98.4912 51.1558 96.44 52.7507Z" fill="black"/>
</g>
<g id="Group 17">
<path id="Ellipse 53_11" d="M67.1422 61.0693C65.1271 58.7577 64.7587 55.7808 64.7587 55.7808C64.7587 55.7808 67.8884 56.8167 69.6726 58.8634C71.4568 60.9101 74.4384 65.4739 73.7397 66.0831C73.0409 66.6922 69.1574 63.3809 67.1422 61.0693Z" fill="black"/>
<path id="Ellipse 54_10" d="M67.4471 50.2317C65.3052 52.4263 64.77 55.3778 64.77 55.3778C64.77 55.3778 67.9531 54.5195 69.8495 52.5764C71.746 50.6333 74.9795 46.2443 74.3161 45.5968C73.6527 44.9494 69.5891 48.037 67.4471 50.2317Z" fill="black"/>
</g>
<g id="Group 18">
<path id="Ellipse 53_12" d="M56.9976 61.3299C54.9825 59.0183 54.6141 56.0414 54.6141 56.0414C54.6141 56.0414 57.7438 57.0773 59.528 59.124C61.3122 61.1707 64.2938 65.7345 63.5951 66.3437C62.8963 66.9528 59.0128 63.6415 56.9976 61.3299Z" fill="black"/>
<path id="Ellipse 54_11" d="M57.3026 50.4923C55.1606 52.6869 54.6254 55.6384 54.6254 55.6384C54.6254 55.6384 57.8085 54.7801 59.7049 52.837C61.6014 50.8939 64.8349 46.5049 64.1715 45.8574C63.5081 45.21 59.4445 48.2977 57.3026 50.4923Z" fill="black"/>
</g>
<g id="Group 19">
<path id="Ellipse 53_13" d="M46.853 61.5907C44.8379 59.279 44.4695 56.3022 44.4695 56.3022C44.4695 56.3022 47.5993 57.3381 49.3834 59.3848C51.1676 61.4314 54.1492 65.9953 53.4505 66.6044C52.7517 67.2136 48.8682 63.9023 46.853 61.5907Z" fill="black"/>
<path id="Ellipse 54_12" d="M47.158 50.753C45.016 52.9477 44.4808 55.8991 44.4808 55.8991C44.4808 55.8991 47.6639 55.0409 49.5603 53.0977C51.4568 51.1546 54.6903 46.7657 54.0269 46.1182C53.3635 45.4707 49.2999 48.5584 47.158 50.753Z" fill="black"/>
</g>
<path id="Caule" d="M157.357 65.5557C159.13 65.8592 155.938 65.8391 155.036 65.6905C144.234 63.9104 133.304 62.2633 122.265 60.8467C97.5852 57.6797 73.4352 55.8978 48.6773 57.0644C34.5152 57.7317 20.1223 58.6167 6.89561 60.4947C6.57747 60.5399 6.14907 60.6413 5.78986 60.5631C4.4054 60.2621 18.1416 57.9174 19.3633 57.7381C29.3412 56.2739 39.7261 55.2247 50.6065 54.8958C85.4326 53.8432 124.196 59.8773 157.357 65.5557Z" fill="black"/>
</g>
<g id="Galho2">
<path id="Ellipse 52" d="M110.907 95.1101C107.509 93.6435 105.557 90.5949 105.557 90.5949C105.557 90.5949 109.504 90.0921 112.512 91.3906C115.521 92.6891 121.144 96.1039 120.701 97.131C120.257 98.1581 114.305 96.5766 110.907 95.1101Z" fill="#E5E5E5"/>
<g id="Group 1">
<path id="Ellipse 53_14" d="M93.2826 89.833C92.4564 87.5539 93.0341 85.2542 93.0341 85.2542C93.0341 85.2542 95.0459 86.9108 95.7774 88.9286C96.5088 90.9465 97.4049 95.1617 96.716 95.4114C96.027 95.6611 94.1087 92.112 93.2826 89.833Z" fill="#E5E5E5"/>
<path id="Ellipse 54_13" d="M96.5992 81.9304C94.394 82.9372 93.1575 84.9604 93.1575 84.9604C93.1575 84.9604 95.7489 85.2357 97.7014 84.3443C99.6538 83.4528 103.29 81.1397 102.985 80.4731C102.681 79.8065 98.8044 80.9235 96.5992 81.9304Z" fill="#E5E5E5"/>
</g>
<g id="Group 5">
<path id="Ellipse 53_15" d="M101.015 92.893C100.247 90.7745 100.784 88.6368 100.784 88.6368C100.784 88.6368 102.654 90.1767 103.334 92.0524C104.014 93.9281 104.847 97.8464 104.206 98.0785C103.566 98.3106 101.783 95.0115 101.015 92.893Z" fill="#E5E5E5"/>
<path id="Ellipse 54_14" d="M104.098 85.5469C102.048 86.4828 100.898 88.3635 100.898 88.3635C100.898 88.3635 103.307 88.6194 105.122 87.7908C106.937 86.9621 110.317 84.8119 110.034 84.1923C109.751 83.5726 106.148 84.6109 104.098 85.5469Z" fill="#E5E5E5"/>
</g>
<g id="Group 2">
<path id="Ellipse 53_16" d="M83.6797 85.588C82.8538 83.3096 83.4313 81.0106 83.4313 81.0106C83.4313 81.0106 85.4425 82.6667 86.1738 84.684C86.905 86.7012 87.8008 90.9151 87.1121 91.1648C86.4234 91.4144 84.5056 87.8664 83.6797 85.588Z" fill="#E5E5E5"/>
<path id="Ellipse 54_15" d="M86.9954 77.6877C84.7908 78.6943 83.5546 80.7169 83.5546 80.7169C83.5546 80.7169 86.1453 80.9921 88.0972 80.1009C90.0491 79.2097 93.6839 76.8973 93.3797 76.2309C93.0754 75.5645 89.1999 76.6812 86.9954 77.6877Z" fill="#E5E5E5"/>
</g>
<g id="Group 3">
<path id="Ellipse 53_17" d="M74.422 81.6228C73.616 79.3993 74.1796 77.1556 74.1796 77.1556C74.1796 77.1556 76.1424 78.7718 76.856 80.7405C77.5696 82.7092 78.4439 86.8217 77.7717 87.0653C77.0996 87.3089 75.228 83.8463 74.422 81.6228Z" fill="#E5E5E5"/>
<path id="Ellipse 54_16" d="M77.6578 73.9127C75.5064 74.895 74.3 76.8689 74.3 76.8689C74.3 76.8689 76.8283 77.1375 78.7331 76.2678C80.638 75.398 84.1853 73.1412 83.8884 72.4909C83.5915 71.8406 79.8093 72.9303 77.6578 73.9127Z" fill="#E5E5E5"/>
</g>
<g id="Group 6">
<path id="Ellipse 53_18" d="M55.4326 74.6228C54.6266 72.3993 55.1902 70.1556 55.1902 70.1556C55.1902 70.1556 57.153 71.7718 57.8666 73.7405C58.5802 75.7092 59.4545 79.8217 58.7824 80.0653C58.1102 80.3089 56.2386 76.8463 55.4326 74.6228Z" fill="#E5E5E5"/>
<path id="Ellipse 54_17" d="M58.6685 66.9127C56.517 67.895 55.3106 69.8689 55.3106 69.8689C55.3106 69.8689 57.8389 70.1375 59.7438 69.2678C61.6486 68.398 65.196 66.1412 64.899 65.4909C64.6021 64.8406 60.8199 65.9303 58.6685 66.9127Z" fill="#E5E5E5"/>
</g>
<g id="Group 4">
<path id="Ellipse 53_19" d="M64.4819 77.963C63.6341 75.6243 64.2269 73.2644 64.2269 73.2644C64.2269 73.2644 66.2914 74.9643 67.042 77.035C67.7926 79.1057 68.7121 83.4313 68.0052 83.6875C67.2982 83.9438 65.3296 80.3018 64.4819 77.963Z" fill="#E5E5E5"/>
<path id="Ellipse 54_18" d="M67.8854 69.8534C65.6224 70.8866 64.3535 72.9628 64.3535 72.9628C64.3535 72.9628 67.0128 73.2453 69.0164 72.3305C71.02 71.4157 74.7511 69.042 74.4388 68.358C74.1264 67.674 70.1483 68.8202 67.8854 69.8534Z" fill="#E5E5E5"/>
</g>
<g id="Group 7">
<path id="Ellipse 53_20" d="M45.9653 72.6324C45.0321 70.0578 45.6847 67.4599 45.6847 67.4599C45.6847 67.4599 47.9573 69.3313 48.7836 71.6108C49.6099 73.8903 50.6221 78.652 49.8439 78.9341C49.0656 79.2162 46.8985 75.2069 45.9653 72.6324Z" fill="#E5E5E5"/>
<path id="Ellipse 54_19" d="M49.712 63.705C47.2209 64.8424 45.824 67.1279 45.824 67.1279C45.824 67.1279 48.7515 67.439 50.9571 66.4319C53.1627 65.4249 57.2701 62.8118 56.9263 62.0588C56.5825 61.3058 52.2031 62.5676 49.712 63.705Z" fill="#E5E5E5"/>
</g>
<path id="Caule_2" d="M106.415 90.8962C107.541 91.4193 105.418 90.8282 104.844 90.566C97.9674 87.4249 90.9815 84.3492 83.8814 81.4074C68.0073 74.8304 52.2359 69.2724 35.5258 65.5694C25.9673 63.4511 16.2155 61.4362 7.06115 60.2941C6.84097 60.2666 6.53712 60.2566 6.31187 60.1396C5.44375 59.6884 15.022 60.6117 15.8687 60.7133C22.783 61.5433 29.8935 62.7235 37.2039 64.4734C60.603 70.0745 85.3432 81.1108 106.415 90.8962Z" fill="#E5E5E5"/>
</g>
<g id="Galho1">
<path id="Ellipse 54_20" d="M125.015 6.14658C121.185 8.30044 119.259 12.1428 119.259 12.1428C119.259 12.1428 123.982 12.2462 127.373 10.3392C130.764 8.43217 136.979 3.70135 136.328 2.54359C135.677 1.38584 128.845 3.99273 125.015 6.14658Z" fill="#9E9C9C"/>
<g id="Group 20">
<path id="Ellipse 53_21" d="M104.859 14.5676C104.167 17.3614 105.135 20.0051 105.135 20.0051C105.135 20.0051 107.305 17.7991 107.918 15.3255C108.531 12.8519 109.065 7.7632 108.221 7.55391C107.376 7.34461 105.552 11.7738 104.859 14.5676Z" fill="#9E9C9C"/>
<path id="Ellipse 54_21" d="M109.757 23.487C107.028 22.5721 105.317 20.3367 105.317 20.3367C105.317 20.3367 108.343 19.6896 110.759 20.4997C113.175 21.3098 117.756 23.5895 117.479 24.4144C117.203 25.2394 112.486 24.402 109.757 23.487Z" fill="#9E9C9C"/>
</g>
<g id="Group 21">
<path id="Ellipse 53_22" d="M113.609 9.99355C112.966 12.5906 113.865 15.0481 113.865 15.0481C113.865 15.0481 115.882 12.9975 116.452 10.6981C117.022 8.3987 117.519 3.66846 116.734 3.47391C115.949 3.27936 114.253 7.39654 113.609 9.99355Z" fill="#9E9C9C"/>
<path id="Ellipse 54_22" d="M118.162 18.2848C115.626 17.4343 114.035 15.3563 114.035 15.3563C114.035 15.3563 116.847 14.7548 119.093 15.5079C121.34 16.2609 125.598 18.3801 125.341 19.1469C125.083 19.9137 120.699 19.1353 118.162 18.2848Z" fill="#9E9C9C"/>
</g>
<g id="Group 22">
<path id="Ellipse 53_23" d="M94.0474 20.7729C93.3552 23.5659 94.3228 26.2089 94.3228 26.2089C94.3228 26.2089 96.4919 24.0035 97.1047 21.5306C97.7176 19.0577 98.2519 13.9705 97.4076 13.7613C96.5633 13.5521 94.7396 17.9799 94.0474 20.7729Z" fill="#9E9C9C"/>
<path id="Ellipse 54_23" d="M98.9441 29.6897C96.2159 28.7751 94.5049 26.5403 94.5049 26.5403C94.5049 26.5403 97.5298 25.8934 99.9454 26.7033C102.361 27.5132 106.94 29.7922 106.664 30.6169C106.387 31.4416 101.672 30.6044 98.9441 29.6897Z" fill="#9E9C9C"/>
</g>
<g id="Group 23">
<path id="Ellipse 53_24" d="M83.6083 26.6054C82.9328 29.3311 83.8771 31.9104 83.8771 31.9104C83.8771 31.9104 85.9939 29.7581 86.592 27.3448C87.1901 24.9315 87.7115 19.9668 86.8876 19.7626C86.0637 19.5584 84.2838 23.8796 83.6083 26.6054Z" fill="#9E9C9C"/>
<path id="Ellipse 54_24" d="M88.3871 35.3076C85.7245 34.4149 84.0547 32.234 84.0547 32.234C84.0547 32.234 87.0069 31.6027 89.3642 32.393C91.7216 33.1834 96.1907 35.4076 95.9209 36.2124C95.651 37.0172 91.0496 36.2003 88.3871 35.3076Z" fill="#9E9C9C"/>
</g>
<g id="Group 24">
<path id="Ellipse 53_25" d="M62.0548 37.23C61.3793 39.9557 62.3236 42.5351 62.3236 42.5351C62.3236 42.5351 64.4405 40.3828 65.0386 37.9694C65.6366 35.5561 66.1581 30.5914 65.3341 30.3872C64.5102 30.183 62.7303 34.5043 62.0548 37.23Z" fill="#9E9C9C"/>
<path id="Ellipse 54_25" d="M66.8336 45.9322C64.1711 45.0396 62.5013 42.8586 62.5013 42.8586C62.5013 42.8586 65.4534 42.2273 67.8108 43.0177C70.1681 43.808 74.6373 46.0322 74.3674 46.837C74.0976 47.6419 69.4961 46.8249 66.8336 45.9322Z" fill="#9E9C9C"/>
</g>
<g id="Group 25">
<path id="Ellipse 53_26" d="M72.3254 32.1616C71.6149 35.0285 72.6081 37.7415 72.6081 37.7415C72.6081 37.7415 74.8347 35.4777 75.4637 32.9393C76.0928 30.401 76.6412 25.179 75.7746 24.9643C74.908 24.7495 73.0359 29.2946 72.3254 32.1616Z" fill="#9E9C9C"/>
<path id="Ellipse 54_26" d="M77.3518 41.3147C74.5513 40.3758 72.795 38.0819 72.795 38.0819C72.795 38.0819 75.9 37.4179 78.3796 38.2492C80.8591 39.0805 85.5598 41.4199 85.2759 42.2664C84.9921 43.1129 80.1522 42.2537 77.3518 41.3147Z" fill="#9E9C9C"/>
</g>
<g id="Group 26">
<path id="Ellipse 53_27" d="M51.1229 40.7565C50.3407 43.9126 51.4341 46.8991 51.4341 46.8991C51.4341 46.8991 53.8852 44.407 54.5777 41.6127C55.2702 38.8183 55.8739 33.0698 54.9199 32.8334C53.9659 32.5969 51.905 37.6004 51.1229 40.7565Z" fill="#9E9C9C"/>
<path id="Ellipse 54_27" d="M56.6561 50.8327C53.5733 49.7991 51.6398 47.2738 51.6398 47.2738C51.6398 47.2738 55.058 46.5428 57.7876 47.458C60.5171 48.3731 65.6919 50.9484 65.3794 51.8803C65.067 52.8122 59.739 51.8663 56.6561 50.8327Z" fill="#9E9C9C"/>
</g>
<path id="Caule_3" d="M120.234 11.6804C121.499 10.9228 119.065 11.8846 118.42 12.2655C110.69 16.8288 102.823 21.3286 94.8049 25.6843C76.8775 35.4226 58.9447 43.9449 39.6731 50.3935C28.6493 54.0822 17.3845 57.673 6.7168 60.1589C6.46021 60.2187 6.10266 60.2682 5.85123 60.4345C4.88218 61.0751 16.0777 58.7949 17.0648 58.5697C25.1263 56.7306 33.376 54.4537 41.7908 51.4792C68.7251 41.9584 96.5679 25.853 120.234 11.6804Z" fill="#9E9C9C"/>
</g>
</g>
</svg>
