<svg width="267" height="49" viewBox="0 0 267 49" fill="none" xmlns="http://www.w3.org/2000/svg">
<path d="M1.46209 42.3523C0.0716641 43.4822 -0.410206 41.4285 0.379487 40.4536C5.35636 34.3099 11.0222 27.095 19.0588 25.0237C29.5855 22.3107 39.3994 30.7236 45.5454 38.3177C48.6724 42.1814 44.8041 48.0634 39.9948 46.1817C32.661 43.3122 30.0553 32.3729 20.6941 32.2343C13.4942 32.1277 6.67564 38.1156 1.46209 42.3523ZM46.2925 43.6624C44.0843 48.1013 37.1615 46.9541 36.8531 41.8654C36.2931 32.6231 55.7409 5.40947 65.9666 2.96192C83.4231 -1.21631 93.1789 29.4323 97.5904 40.8422C97.8007 41.3861 97.1084 43.4686 96.8223 43.9808C93.6592 49.642 81.3469 11.7507 70.3244 10.2899C58.9512 8.78258 49.698 36.8166 46.2925 43.6624ZM97.6132 42.2301C94.6938 49.8363 95.5744 37.2536 97.4273 33.2509C100.734 26.1084 105.98 10.2782 115.243 8.56215C127.129 6.35982 134.403 33.0945 136.882 40.4474C138.158 44.2319 132.64 46.6327 130.86 43.0118C127.897 36.9853 126.059 13.2875 116.504 12.2242C107.079 11.1754 99.7729 36.6031 97.6132 42.2301ZM136.517 43.4001C134.694 45.9635 130.476 44.7527 130.524 41.5174C130.642 33.4779 144.836 16.056 153.13 14.3463C166.29 11.6339 171.512 31.2905 173.735 40.4896C174.686 44.4238 169.817 47.4106 166.887 44.4193C163.267 40.7227 161.594 24.9099 155.02 24.1677C148.082 23.3844 139.525 39.1707 136.517 43.4001ZM173.655 42.9C172.145 46.9699 165.918 46.1756 165.726 41.7419C165.452 35.4145 184.559 2.74049 192.806 0.391429C208.253 -4.00894 218.183 29.9468 221.18 39.3119C223.617 46.9239 212.82 51.9638 208.88 44.84C205.812 39.2921 203.006 8.11213 194.905 6.85944C186.292 5.52745 175.62 37.6059 173.655 42.9ZM220.497 45.2174C216.359 51.3236 206.411 47.2612 208.235 39.9318C217.958 0.862228 257.237 -2.40562 266.491 40.9525C266.642 41.6568 266.531 42.3919 266.153 43.0087C262.716 48.6096 252.185 25.7631 244.554 23.9857C234.44 21.6301 224.786 38.8872 220.497 45.2174Z" fill="black"/>
</svg>
