<svg width="230" height="89" viewBox="0 0 230 89" fill="none" xmlns="http://www.w3.org/2000/svg">
<g id="flowers" clip-path="url(#clip0_48_23)">
<path id="Galho" d="M0.181854 38.0664C-0.967484 37.9899 5.22195 37.6423 5.94521 37.6518C10.2001 37.7077 14.4565 37.5893 18.7065 37.3891C31.1131 36.8047 43.6464 36.9211 55.9819 35.502C84.325 32.2411 113.415 30.4229 141.607 26.0696C143.931 25.7107 167.353 17.4216 168.595 18.3975C169.462 19.0787 164.357 22.1609 164.075 22.2311C162.6 22.5991 162.425 23.0425 154.002 26.0696C140.579 30.8939 136.419 33.2187 120.669 34.627C120.126 34.6755 117.037 35.2391 118.612 35.2052C122.096 35.1301 126.446 34.3351 129.732 33.6426C152.232 28.8997 148.641 27.7909 158.357 25.377C161.596 24.5721 162.718 23.903 165.607 22.2311C168.595 20.502 169.737 18.4597 168.267 18.9219C147.732 25.377 139.178 24.9255 124.232 27.252C84.9567 33.3653 40.0975 40.7258 0.181854 38.0664ZM118.612 35.2052C118.52 35.2027 116.742 35.2001 119.517 35.2052C125.151 35.2154 130.785 35.2243 136.418 35.2331C167.555 35.2815 198.878 34.2285 229.995 35.2908C230.05 35.2927 224.258 35.4709 221.389 35.4705C215.704 35.4696 210.02 35.4694 204.335 35.4699C173.33 35.4727 149.609 36.0164 118.612 35.2052ZM229.979 35.2923C230.223 35.2478 228.243 35.7968 227.91 35.8579C226.06 36.1983 224.209 36.5366 222.357 36.8714C217.142 37.8144 211.923 38.7341 206.693 39.5939C190.908 42.1891 175.032 44.2012 159.053 45.0853C108.602 47.8768 47.2042 33.9019 0.303284 50.6605C0.106552 50.7308 5.10123 48.4673 6.64766 48.0579C11.5212 46.7679 16.4835 45.8293 21.4758 45.1369C36.5031 43.0527 51.7536 42.6641 66.9018 42.9344C95.0652 43.4371 121.794 46.3145 149.544 44.4395C176.609 42.6108 203.349 40.1585 229.979 35.2923ZM0.500763 50.3809C0.491165 50.5645 -0.104828 42.8929 -0.108444 39.1407C-0.108887 38.6812 -0.129562 38.2163 -0.109802 37.757C-0.101669 37.5678 0.505981 45.2432 0.502197 48.9947C0.50174 49.4546 0.524796 49.9214 0.500763 50.3809Z" fill="#9E9C9C"/>
<g id="galho e folha">
<path id="Caule" d="M164.146 50.9415C165.514 50.7734 161.6 51.6401 160.949 51.7284C156.307 52.3584 152.594 53.0675 147.929 53.6133C136.524 54.9474 125.032 55.99 113.474 56.4121C72.4343 57.9108 33.7179 48.7692 0.0690341 32.8216C-0.264491 32.6635 -0.10153 32.2906 0.307448 32.2922C4.18007 32.3075 11.6726 36.4619 14.9617 37.6586C24.9738 41.3014 35.1807 44.714 45.7591 47.5133C84.501 57.7654 124.028 55.8692 164.146 50.9415Z" fill="black"/>
<g id="Folhas">
<path id="Ellipse 70" d="M83.9481 51.3496C82.4446 54.2089 80.4544 54.1817 78.2678 53.6378C76.0812 53.094 74.5261 52.2395 76.0296 49.3802C77.5331 46.521 82.1408 42.6235 86.6539 37.6898C85.1446 43.236 85.4516 48.4904 83.9481 51.3496Z" fill="black"/>
<path id="Ellipse 71" d="M73.747 58.1026C73.7996 55.0624 75.6921 54.638 78.0171 54.657C80.3422 54.6761 82.2194 55.1313 82.1668 58.1716C82.1141 61.2119 79.6263 65.9347 77.7235 71.6146C76.4968 66.0356 73.6943 61.1429 73.747 58.1026Z" fill="black"/>
</g>
<g id="Folhas_2">
<path id="Ellipse 70_2" d="M92.8953 52.3742C91.3918 55.2334 89.4017 55.2062 87.2151 54.6624C85.0284 54.1185 83.4733 53.264 84.9768 50.4048C86.4803 47.5455 91.0881 43.648 95.6011 38.7144C94.0918 44.2605 94.3988 49.5149 92.8953 52.3742Z" fill="black"/>
<path id="Ellipse 71_2" d="M82.6942 59.1272C82.7469 56.0869 84.6393 55.6625 86.9644 55.6816C89.2894 55.7006 91.1667 56.1559 91.114 59.1961C91.0614 62.2364 88.5736 66.9592 86.6707 72.6392C85.444 67.0602 82.6416 62.1675 82.6942 59.1272Z" fill="black"/>
</g>
<g id="Folhas_3">
<path id="Ellipse 70_3" d="M101.843 52.8195C100.339 55.6788 98.3489 55.6516 96.1623 55.1077C93.9757 54.5639 92.4206 53.7094 93.9241 50.8501C95.4276 47.9909 100.035 44.0934 104.548 39.1598C103.039 44.7059 103.346 49.9603 101.843 52.8195Z" fill="black"/>
<path id="Ellipse 71_3" d="M91.6415 59.5726C91.6941 56.5323 93.5866 56.1079 95.9116 56.1269C98.2367 56.146 100.114 56.6012 100.061 59.6415C100.009 62.6818 97.5208 67.4046 95.618 73.0845C94.3913 67.5055 91.5888 62.6128 91.6415 59.5726Z" fill="black"/>
</g>
<g id="Folhas_4">
<path id="Ellipse 70_4" d="M110.79 53.265C109.286 56.1242 107.296 56.097 105.11 55.5532C102.923 55.0093 101.368 54.1548 102.871 51.2956C104.375 48.4363 108.983 44.5388 113.496 39.6052C111.986 45.1513 112.293 50.4057 110.79 53.265Z" fill="black"/>
<path id="Ellipse 71_4" d="M100.589 60.018C100.641 56.9777 102.534 56.5533 104.859 56.5724C107.184 56.5914 109.061 57.0467 109.009 60.0869C108.956 63.1272 106.468 67.85 104.565 73.53C103.339 67.951 100.536 63.0583 100.589 60.018Z" fill="black"/>
</g>
<g id="Folhas_5">
<path id="Ellipse 70_5" d="M120.191 52.4444C119.078 55.3871 117.093 55.4866 114.843 55.0841C112.592 54.6817 110.929 53.9298 112.041 50.9872C113.154 48.0445 117.218 43.8707 121.048 38.6711C120.291 44.2894 121.303 49.5018 120.191 52.4444Z" fill="black"/>
<path id="Ellipse 71_5" d="M110.942 59.8174C110.585 56.7868 112.412 56.2438 114.73 56.1149C117.048 55.986 118.978 56.3199 119.335 59.3505C119.691 62.381 117.849 67.2419 116.718 73.0185C114.747 67.5414 111.298 62.848 110.942 59.8174Z" fill="black"/>
</g>
<g id="Folhas_6">
<path id="Ellipse 70_6" d="M130.368 52.2404C128.865 55.0997 126.875 55.0725 124.688 54.5286C122.502 53.9848 120.946 53.1303 122.45 50.271C123.953 47.4118 128.561 43.5143 133.074 38.5807C131.565 44.1268 131.872 49.3812 130.368 52.2404Z" fill="black"/>
<path id="Ellipse 71_6" d="M120.167 58.9935C120.22 55.9532 122.112 55.5288 124.437 55.5478C126.763 55.5669 128.64 56.0221 128.587 59.0624C128.534 62.1027 126.047 66.8255 124.144 72.5054C122.917 66.9264 120.115 62.0337 120.167 58.9935Z" fill="black"/>
</g>
<g id="Folhas_7">
<path id="Ellipse 70_7" d="M140.43 51.3551C139.333 54.2475 137.349 54.3551 135.097 53.9717C132.845 53.5882 131.178 52.8589 132.274 49.9665C133.371 47.074 137.411 42.9589 141.213 37.8386C140.486 43.3542 141.526 48.4627 140.43 51.3551Z" fill="black"/>
<path id="Ellipse 71_7" d="M131.222 58.6348C130.849 55.6634 132.673 55.1216 134.99 54.9834C137.307 54.8453 139.238 55.1631 139.611 58.1344C139.984 61.1058 138.168 65.8837 137.069 71.5565C135.068 66.1932 131.595 61.6061 131.222 58.6348Z" fill="black"/>
</g>
<g id="Folhas_8">
<path id="Ellipse 70_8" d="M149.414 50.3774C148.307 53.1998 146.323 53.308 144.073 52.9379C141.823 52.5678 140.158 51.8594 141.265 49.037C142.372 46.2146 146.426 42.1949 150.245 37.1955C149.499 42.5753 150.52 47.555 149.414 50.3774Z" fill="black"/>
<path id="Ellipse 71_8" d="M140.182 57.4916C139.82 54.5947 141.646 54.0633 143.962 53.9247C146.279 53.786 148.209 54.0928 148.571 56.9896C148.933 59.8864 147.101 64.5487 145.981 70.0823C144 64.8557 140.544 60.3884 140.182 57.4916Z" fill="black"/>
</g>
<g id="Folhas_9">
<path id="Ellipse 70_9" d="M158.822 49.162C158.048 51.9392 156.086 52.1662 153.802 51.9507C151.519 51.7353 149.78 51.1588 150.554 48.3816C151.328 45.6044 154.898 41.4953 158.12 36.4606C158.001 41.6695 159.597 46.3848 158.822 49.162Z" fill="black"/>
<path id="Ellipse 71_9" d="M150.458 56.5623C149.761 53.8048 151.517 53.1815 153.807 52.9046C156.097 52.6278 158.054 52.8023 158.751 55.5597C159.447 58.3172 158.164 62.905 157.692 68.2848C155.113 63.3921 151.154 59.3197 150.458 56.5623Z" fill="black"/>
</g>
<g id="Folhas_10">
<path id="Ellipse 70_10" d="M163.894 54.349C159.892 53.7017 159.643 52.3435 160.051 50.7836C160.459 49.2237 161.369 48.0527 165.372 48.7001C169.374 49.3474 175.195 51.9711 182.376 54.3941C174.813 54.0963 167.897 54.9964 163.894 54.349Z" fill="black"/>
</g>
</g>
<path id="Vector 65" d="M125.793 67.632C125.793 67.632 169.561 62.5074 165.932 38.4889C161.359 8.21783 139.101 -19.3032 105.452 29.1609C71.8033 77.6249 76.3658 71.0537 69.4256 81.0495C47.1155 113.183 89.7361 -20.7075 9.17392 39.2165" stroke="#E5E5E5"/>
</g>
<defs>
<clipPath id="clip0_48_23">
<rect width="89" height="230" fill="white" transform="matrix(0 1 -1 0 230 0)"/>
</clipPath>
</defs>
</svg>
