<svg width="18" height="19" viewBox="0 0 18 19" fill="none" xmlns="http://www.w3.org/2000/svg">
<path id="Vector (Stroke)" fill-rule="evenodd" clip-rule="evenodd" d="M0 5.97046C0 3.20904 2.23858 0.970459 5 0.970459H13C15.7614 0.970459 18 3.20904 18 5.97046V13.9705C18 16.7319 15.7614 18.9705 13 18.9705H5C2.23858 18.9705 0 16.7319 0 13.9705V5.97046ZM5 2.97046C3.34315 2.97046 2 4.3136 2 5.97046V13.9705C2 15.6273 3.34315 16.9705 5 16.9705H13C14.6569 16.9705 16 15.6273 16 13.9705V5.97046C16 4.3136 14.6569 2.97046 13 2.97046H5ZM12.5968 5.18494C12.5968 4.63265 13.0445 4.18494 13.5968 4.18494H13.6068C14.1591 4.18494 14.6068 4.63265 14.6068 5.18494C14.6068 5.73722 14.1591 6.18494 13.6068 6.18494H13.5968C13.0445 6.18494 12.5968 5.73722 12.5968 5.18494ZM9 6.97046C7.34315 6.97046 6 8.3136 6 9.97046C6 11.6273 7.34315 12.9705 9 12.9705C10.6569 12.9705 12 11.6273 12 9.97046C12 8.3136 10.6569 6.97046 9 6.97046ZM4 9.97046C4 7.20903 6.23858 4.97046 9 4.97046C11.7614 4.97046 14 7.20903 14 9.97046C14 12.7319 11.7614 14.9705 9 14.9705C6.23858 14.9705 4 12.7319 4 9.97046Z" fill="white"/>
</svg>
