<svg width="20" height="19" viewBox="0 0 20 19" fill="none" xmlns="http://www.w3.org/2000/svg">
<g id="Vector">
<path fill-rule="evenodd" clip-rule="evenodd" d="M10 1.89378C5.58172 1.89378 2 5.28526 2 9.46888C2 10.8739 2.40305 12.187 3.10511 13.3132L3.67393 13.9929L2.97722 16.2265L5.29785 15.6128L5.67554 15.8431C6.92191 16.603 8.40504 17.044 10 17.044C14.4183 17.044 18 13.6525 18 9.46888C18 5.28526 14.4183 1.89378 10 1.89378ZM0 9.46888C0 4.23936 4.47715 0 10 0C15.5229 0 20 4.23936 20 9.46888C20 14.6984 15.5229 18.9378 10 18.9378C8.17356 18.9378 6.45912 18.4733 4.98403 17.662L0.0358549 18.9705L1.46188 14.3989L1.45614 14.392L1.42288 14.3396C0.519334 12.9158 0 11.2483 0 9.46888Z" fill="white"/>
<path d="M14.7354 10.8819C14.6965 10.8642 13.2384 10.1843 12.9793 10.096C12.8735 10.0601 12.7602 10.0249 12.6397 10.0249C12.4428 10.0249 12.2774 10.1179 12.1486 10.3003C12.003 10.5053 11.562 10.9934 11.4258 11.1391C11.408 11.1584 11.3837 11.1814 11.3692 11.1814C11.3561 11.1814 11.1305 11.0934 11.0622 11.0653C9.49808 10.422 8.31087 8.87491 8.14808 8.61402C8.12484 8.57652 8.12386 8.55949 8.12367 8.55949C8.12938 8.53963 8.18198 8.4897 8.20912 8.46394C8.28854 8.38954 8.37458 8.29147 8.45782 8.19659C8.49724 8.15165 8.53672 8.10664 8.57549 8.06421C8.69626 7.93116 8.75003 7.82786 8.81237 7.70821L8.84503 7.64605C8.99724 7.3597 8.86724 7.11806 8.82522 7.04004C8.79074 6.97474 8.1751 5.56781 8.10964 5.42C7.95224 5.06332 7.74425 4.89724 7.45523 4.89724C7.42841 4.89724 7.45523 4.89724 7.34276 4.90173C7.20581 4.9072 6.46003 5.00017 6.13029 5.19699C5.78062 5.40573 5.18906 6.07114 5.18906 7.24134C5.18906 8.29454 5.8949 9.28896 6.19795 9.66716C6.20549 9.67669 6.21932 9.69606 6.23938 9.72385C7.39997 11.3288 8.84678 12.5182 10.3135 13.0729C11.7255 13.607 12.3941 13.6687 12.7743 13.6687C12.934 13.6687 13.0619 13.6569 13.1747 13.6464L13.2463 13.6399C13.7341 13.599 14.806 13.073 15.0498 12.4314C15.2419 11.926 15.2926 11.3739 15.1648 11.1735C15.0772 11.0373 14.9264 10.9687 14.7354 10.8819Z" fill="white"/>
</g>
</svg>
