<svg width="207" height="148" viewBox="0 0 207 148" fill="none" xmlns="http://www.w3.org/2000/svg">
<path d="M4.56592 146V145.297L7.20654 142.406C7.51644 142.068 7.77165 141.773 7.97217 141.523C8.17269 141.271 8.32113 141.034 8.41748 140.812C8.51644 140.589 8.56592 140.354 8.56592 140.109C8.56592 139.828 8.49821 139.585 8.36279 139.379C8.22998 139.173 8.04769 139.014 7.81592 138.902C7.58415 138.79 7.32373 138.734 7.03467 138.734C6.72738 138.734 6.45915 138.798 6.22998 138.926C6.00342 139.051 5.82764 139.227 5.70264 139.453C5.58024 139.68 5.51904 139.945 5.51904 140.25H4.59717C4.59717 139.781 4.70524 139.37 4.92139 139.016C5.13753 138.661 5.4318 138.385 5.8042 138.187C6.1792 137.99 6.59977 137.891 7.06592 137.891C7.53467 137.891 7.95003 137.99 8.31201 138.187C8.67399 138.385 8.95785 138.652 9.16357 138.988C9.3693 139.324 9.47217 139.698 9.47217 140.109C9.47217 140.404 9.41878 140.691 9.31201 140.973C9.20785 141.251 9.02555 141.562 8.76514 141.906C8.50732 142.247 8.14925 142.664 7.69092 143.156L5.89404 145.078V145.141H9.61279V146H4.56592ZM13.8823 146.109C13.5542 146.104 13.2261 146.042 12.8979 145.922C12.5698 145.802 12.2703 145.6 11.9995 145.316C11.7287 145.03 11.5112 144.643 11.3472 144.156C11.1831 143.667 11.1011 143.052 11.1011 142.312C11.1011 141.604 11.1675 140.977 11.3003 140.43C11.4331 139.88 11.6258 139.418 11.8784 139.043C12.131 138.665 12.4357 138.379 12.7925 138.184C13.1519 137.988 13.5568 137.891 14.0073 137.891C14.4552 137.891 14.8537 137.98 15.2026 138.16C15.5542 138.337 15.8407 138.585 16.062 138.902C16.2834 139.22 16.4266 139.586 16.4917 140H15.5386C15.45 139.641 15.2782 139.342 15.0229 139.105C14.7677 138.868 14.4292 138.75 14.0073 138.75C13.3875 138.75 12.8993 139.02 12.5425 139.559C12.1883 140.098 12.0099 140.854 12.0073 141.828H12.0698C12.2157 141.607 12.3888 141.418 12.5894 141.262C12.7925 141.103 13.0164 140.98 13.2612 140.895C13.506 140.809 13.7651 140.766 14.0386 140.766C14.4969 140.766 14.9162 140.88 15.2964 141.109C15.6766 141.336 15.9813 141.65 16.2104 142.051C16.4396 142.449 16.5542 142.906 16.5542 143.422C16.5542 143.917 16.4435 144.37 16.2222 144.781C16.0008 145.19 15.6896 145.516 15.2886 145.758C14.8901 145.997 14.4214 146.115 13.8823 146.109ZM13.8823 145.25C14.2104 145.25 14.5047 145.168 14.7651 145.004C15.0282 144.84 15.2352 144.62 15.3862 144.344C15.5399 144.068 15.6167 143.76 15.6167 143.422C15.6167 143.091 15.5425 142.79 15.394 142.52C15.2482 142.246 15.0464 142.029 14.7886 141.867C14.5334 141.706 14.2417 141.625 13.9136 141.625C13.6662 141.625 13.4357 141.674 13.2222 141.773C13.0086 141.87 12.8211 142.003 12.6597 142.172C12.5008 142.341 12.3758 142.535 12.2847 142.754C12.1935 142.97 12.1479 143.198 12.1479 143.437C12.1479 143.755 12.2222 144.052 12.3706 144.328C12.5216 144.604 12.7274 144.827 12.9878 144.996C13.2508 145.165 13.549 145.25 13.8823 145.25Z" fill="black"/>
<path d="M35.856 146V145.297L38.4966 142.406C38.8065 142.068 39.0617 141.773 39.2622 141.523C39.4627 141.271 39.6112 141.034 39.7075 140.812C39.8065 140.589 39.856 140.354 39.856 140.109C39.856 139.828 39.7882 139.585 39.6528 139.379C39.52 139.173 39.3377 139.014 39.106 138.902C38.8742 138.79 38.6138 138.734 38.3247 138.734C38.0174 138.734 37.7492 138.798 37.52 138.926C37.2935 139.051 37.1177 139.227 36.9927 139.453C36.8703 139.68 36.8091 139.945 36.8091 140.25H35.8872C35.8872 139.781 35.9953 139.37 36.2114 139.016C36.4276 138.661 36.7218 138.385 37.0942 138.187C37.4692 137.99 37.8898 137.891 38.356 137.891C38.8247 137.891 39.2401 137.99 39.6021 138.187C39.964 138.385 40.2479 138.652 40.4536 138.988C40.6593 139.324 40.7622 139.698 40.7622 140.109C40.7622 140.404 40.7088 140.691 40.6021 140.973C40.4979 141.251 40.3156 141.562 40.0552 141.906C39.7974 142.247 39.4393 142.664 38.981 143.156L37.1841 145.078V145.141H40.9028V146H35.856ZM42.7661 146L46.3442 138.922V138.859H42.2192V138H47.3442V138.906L43.7817 146H42.7661Z" fill="black"/>
<path d="M66.6089 146V145.297L69.2495 142.406C69.5594 142.068 69.8146 141.773 70.0151 141.523C70.2157 141.271 70.3641 141.034 70.4604 140.812C70.5594 140.589 70.6089 140.354 70.6089 140.109C70.6089 139.828 70.5412 139.585 70.4058 139.379C70.2729 139.173 70.0907 139.014 69.8589 138.902C69.6271 138.79 69.3667 138.734 69.0776 138.734C68.7703 138.734 68.5021 138.798 68.2729 138.926C68.0464 139.051 67.8706 139.227 67.7456 139.453C67.6232 139.68 67.562 139.945 67.562 140.25H66.6401C66.6401 139.781 66.7482 139.37 66.9644 139.016C67.1805 138.661 67.4748 138.385 67.8472 138.187C68.2222 137.99 68.6427 137.891 69.1089 137.891C69.5776 137.891 69.993 137.99 70.355 138.187C70.717 138.385 71.0008 138.652 71.2065 138.988C71.4123 139.324 71.5151 139.698 71.5151 140.109C71.5151 140.404 71.4618 140.691 71.355 140.973C71.2508 141.251 71.0685 141.562 70.8081 141.906C70.5503 142.247 70.1922 142.664 69.7339 143.156L67.937 145.078V145.141H71.6558V146H66.6089ZM75.8315 146.109C75.2951 146.109 74.8211 146.014 74.4097 145.824C74.0008 145.632 73.6818 145.367 73.4526 145.031C73.2235 144.693 73.1102 144.307 73.1128 143.875C73.1102 143.536 73.1766 143.224 73.312 142.937C73.4474 142.648 73.6323 142.408 73.8667 142.215C74.1037 142.02 74.368 141.896 74.6597 141.844V141.797C74.2769 141.698 73.9722 141.483 73.7456 141.152C73.519 140.819 73.4071 140.44 73.4097 140.016C73.4071 139.609 73.5099 139.246 73.7183 138.926C73.9266 138.605 74.2131 138.353 74.5776 138.168C74.9448 137.983 75.3628 137.891 75.8315 137.891C76.2951 137.891 76.7091 137.983 77.0737 138.168C77.4383 138.353 77.7248 138.605 77.9331 138.926C78.144 139.246 78.2508 139.609 78.2534 140.016C78.2508 140.44 78.1349 140.819 77.9058 141.152C77.6792 141.483 77.3784 141.698 77.0034 141.797V141.844C77.2925 141.896 77.5529 142.02 77.7847 142.215C78.0164 142.408 78.2013 142.648 78.3394 142.937C78.4774 143.224 78.5477 143.536 78.5503 143.875C78.5477 144.307 78.4305 144.693 78.1987 145.031C77.9696 145.367 77.6506 145.632 77.2417 145.824C76.8354 146.014 76.3654 146.109 75.8315 146.109ZM75.8315 145.25C76.1935 145.25 76.506 145.191 76.769 145.074C77.0321 144.957 77.2352 144.792 77.3784 144.578C77.5216 144.365 77.5946 144.115 77.5972 143.828C77.5946 143.526 77.5164 143.259 77.3628 143.027C77.2091 142.796 76.9995 142.613 76.7339 142.48C76.4709 142.348 76.1701 142.281 75.8315 142.281C75.4904 142.281 75.1857 142.348 74.9175 142.48C74.6519 142.613 74.4422 142.796 74.2886 143.027C74.1375 143.259 74.0633 143.526 74.0659 143.828C74.0633 144.115 74.1323 144.365 74.2729 144.578C74.4162 144.792 74.6206 144.957 74.8862 145.074C75.1519 145.191 75.467 145.25 75.8315 145.25ZM75.8315 141.453C76.118 141.453 76.3719 141.396 76.5933 141.281C76.8172 141.167 76.993 141.007 77.1206 140.801C77.2482 140.595 77.3133 140.354 77.3159 140.078C77.3133 139.807 77.2495 139.572 77.1245 139.371C76.9995 139.168 76.8263 139.012 76.605 138.902C76.3836 138.79 76.1258 138.734 75.8315 138.734C75.5321 138.734 75.2703 138.79 75.0464 138.902C74.8224 139.012 74.6493 139.168 74.5269 139.371C74.4045 139.572 74.3446 139.807 74.3472 140.078C74.3446 140.354 74.4058 140.595 74.5308 140.801C74.6584 141.007 74.8341 141.167 75.0581 141.281C75.2821 141.396 75.5399 141.453 75.8315 141.453Z" fill="black"/>
<path d="M97.5659 146V145.297L100.207 142.406C100.516 142.068 100.772 141.773 100.972 141.523C101.173 141.271 101.321 141.034 101.417 140.812C101.516 140.589 101.566 140.354 101.566 140.109C101.566 139.828 101.498 139.585 101.363 139.379C101.23 139.173 101.048 139.014 100.816 138.902C100.584 138.79 100.324 138.734 100.035 138.734C99.7274 138.734 99.4591 138.798 99.23 138.926C99.0034 139.051 98.8276 139.227 98.7026 139.453C98.5802 139.68 98.519 139.945 98.519 140.25H97.5972C97.5972 139.781 97.7052 139.37 97.9214 139.016C98.1375 138.661 98.4318 138.385 98.8042 138.187C99.1792 137.99 99.5998 137.891 100.066 137.891C100.535 137.891 100.95 137.99 101.312 138.187C101.674 138.385 101.958 138.652 102.164 138.988C102.369 139.324 102.472 139.698 102.472 140.109C102.472 140.404 102.419 140.691 102.312 140.973C102.208 141.251 102.026 141.562 101.765 141.906C101.507 142.247 101.149 142.664 100.691 143.156L98.894 145.078V145.141H102.613V146H97.5659ZM106.773 137.891C107.101 137.893 107.429 137.956 107.757 138.078C108.085 138.201 108.385 138.404 108.656 138.687C108.927 138.969 109.144 139.353 109.308 139.84C109.472 140.327 109.554 140.937 109.554 141.672C109.554 142.383 109.486 143.014 109.351 143.566C109.218 144.116 109.026 144.579 108.773 144.957C108.523 145.335 108.218 145.621 107.859 145.816C107.502 146.012 107.098 146.109 106.648 146.109C106.2 146.109 105.8 146.021 105.449 145.844C105.1 145.664 104.813 145.415 104.589 145.098C104.368 144.777 104.226 144.406 104.164 143.984H105.117C105.203 144.352 105.373 144.655 105.628 144.895C105.886 145.132 106.226 145.25 106.648 145.25C107.265 145.25 107.752 144.98 108.109 144.441C108.468 143.902 108.648 143.141 108.648 142.156H108.585C108.44 142.375 108.266 142.564 108.066 142.723C107.865 142.882 107.643 143.004 107.398 143.09C107.153 143.176 106.893 143.219 106.617 143.219C106.158 143.219 105.738 143.105 105.355 142.879C104.975 142.65 104.67 142.336 104.441 141.937C104.214 141.536 104.101 141.078 104.101 140.562C104.101 140.073 104.21 139.625 104.429 139.219C104.651 138.81 104.96 138.484 105.359 138.242C105.76 138 106.231 137.883 106.773 137.891ZM106.773 138.75C106.445 138.75 106.149 138.832 105.886 138.996C105.626 139.158 105.419 139.376 105.265 139.652C105.114 139.926 105.039 140.229 105.039 140.562C105.039 140.896 105.111 141.199 105.257 141.473C105.406 141.743 105.608 141.96 105.863 142.121C106.121 142.28 106.414 142.359 106.742 142.359C106.989 142.359 107.22 142.311 107.433 142.215C107.647 142.116 107.833 141.982 107.992 141.812C108.153 141.641 108.279 141.447 108.371 141.23C108.462 141.012 108.507 140.784 108.507 140.547C108.507 140.234 108.432 139.941 108.281 139.668C108.132 139.395 107.927 139.173 107.664 139.004C107.403 138.835 107.106 138.75 106.773 138.75Z" fill="black"/>
<path d="M131.092 146.109C130.576 146.109 130.117 146.021 129.713 145.844C129.312 145.667 128.993 145.421 128.756 145.105C128.521 144.788 128.394 144.419 128.373 144H129.357C129.378 144.258 129.467 144.48 129.623 144.668C129.779 144.853 129.984 144.996 130.236 145.098C130.489 145.199 130.769 145.25 131.076 145.25C131.42 145.25 131.725 145.19 131.99 145.07C132.256 144.951 132.464 144.784 132.615 144.57C132.766 144.357 132.842 144.109 132.842 143.828C132.842 143.534 132.769 143.275 132.623 143.051C132.477 142.824 132.264 142.647 131.982 142.52C131.701 142.392 131.357 142.328 130.951 142.328H130.311V141.469H130.951C131.269 141.469 131.548 141.411 131.787 141.297C132.029 141.182 132.218 141.021 132.354 140.812C132.492 140.604 132.561 140.359 132.561 140.078C132.561 139.807 132.501 139.572 132.381 139.371C132.261 139.171 132.092 139.014 131.873 138.902C131.657 138.79 131.402 138.734 131.107 138.734C130.831 138.734 130.571 138.785 130.326 138.887C130.084 138.986 129.886 139.13 129.732 139.32C129.579 139.508 129.495 139.734 129.482 140H128.545C128.561 139.581 128.687 139.214 128.924 138.898C129.161 138.581 129.471 138.333 129.854 138.156C130.239 137.979 130.662 137.891 131.123 137.891C131.618 137.891 132.042 137.991 132.396 138.191C132.751 138.389 133.023 138.651 133.213 138.977C133.403 139.302 133.498 139.654 133.498 140.031C133.498 140.482 133.38 140.866 133.143 141.184C132.908 141.501 132.589 141.721 132.186 141.844V141.906C132.691 141.99 133.085 142.204 133.369 142.551C133.653 142.895 133.795 143.32 133.795 143.828C133.795 144.263 133.676 144.654 133.439 145C133.205 145.344 132.885 145.615 132.479 145.812C132.072 146.01 131.61 146.109 131.092 146.109ZM138.002 146.109C137.413 146.109 136.912 145.949 136.498 145.629C136.084 145.306 135.768 144.839 135.549 144.227C135.33 143.612 135.221 142.87 135.221 142C135.221 141.135 135.33 140.397 135.549 139.785C135.77 139.171 136.088 138.702 136.502 138.379C136.919 138.053 137.419 137.891 138.002 137.891C138.585 137.891 139.084 138.053 139.498 138.379C139.915 138.702 140.232 139.171 140.451 139.785C140.673 140.397 140.783 141.135 140.783 142C140.783 142.87 140.674 143.612 140.455 144.227C140.236 144.839 139.92 145.306 139.506 145.629C139.092 145.949 138.59 146.109 138.002 146.109ZM138.002 145.25C138.585 145.25 139.038 144.969 139.361 144.406C139.684 143.844 139.846 143.042 139.846 142C139.846 141.307 139.771 140.717 139.623 140.23C139.477 139.743 139.266 139.372 138.99 139.117C138.717 138.862 138.387 138.734 138.002 138.734C137.424 138.734 136.972 139.02 136.646 139.59C136.321 140.158 136.158 140.961 136.158 142C136.158 142.693 136.231 143.281 136.377 143.766C136.523 144.25 136.732 144.618 137.006 144.871C137.282 145.124 137.614 145.25 138.002 145.25Z" fill="black"/>
<path d="M162.973 146.109C162.457 146.109 161.997 146.021 161.594 145.844C161.193 145.667 160.874 145.421 160.637 145.105C160.402 144.788 160.275 144.419 160.254 144H161.238C161.259 144.258 161.348 144.48 161.504 144.668C161.66 144.853 161.865 144.996 162.117 145.098C162.37 145.199 162.65 145.25 162.957 145.25C163.301 145.25 163.605 145.19 163.871 145.07C164.137 144.951 164.345 144.784 164.496 144.57C164.647 144.357 164.723 144.109 164.723 143.828C164.723 143.534 164.65 143.275 164.504 143.051C164.358 142.824 164.145 142.647 163.863 142.52C163.582 142.392 163.238 142.328 162.832 142.328H162.191V141.469H162.832C163.15 141.469 163.428 141.411 163.668 141.297C163.91 141.182 164.099 141.021 164.234 140.812C164.372 140.604 164.441 140.359 164.441 140.078C164.441 139.807 164.382 139.572 164.262 139.371C164.142 139.171 163.973 139.014 163.754 138.902C163.538 138.79 163.283 138.734 162.988 138.734C162.712 138.734 162.452 138.785 162.207 138.887C161.965 138.986 161.767 139.13 161.613 139.32C161.46 139.508 161.376 139.734 161.363 140H160.426C160.441 139.581 160.568 139.214 160.805 138.898C161.042 138.581 161.352 138.333 161.734 138.156C162.12 137.979 162.543 137.891 163.004 137.891C163.499 137.891 163.923 137.991 164.277 138.191C164.632 138.389 164.904 138.651 165.094 138.977C165.284 139.302 165.379 139.654 165.379 140.031C165.379 140.482 165.26 140.866 165.023 141.184C164.789 141.501 164.47 141.721 164.066 141.844V141.906C164.572 141.99 164.966 142.204 165.25 142.551C165.534 142.895 165.676 143.32 165.676 143.828C165.676 144.263 165.557 144.654 165.32 145C165.086 145.344 164.766 145.615 164.359 145.812C163.953 146.01 163.491 146.109 162.973 146.109ZM170.086 138V146H169.117V139.016H169.07L167.117 140.312V139.328L169.117 138H170.086Z" fill="black"/>
<path d="M8.15186 113V121H7.18311V114.016H7.13623L5.18311 115.312V114.328L7.18311 113H8.15186ZM12.9995 112.891C13.3276 112.893 13.6558 112.956 13.9839 113.078C14.312 113.201 14.6115 113.404 14.8823 113.687C15.1532 113.969 15.3706 114.353 15.5347 114.84C15.6987 115.327 15.7808 115.937 15.7808 116.672C15.7808 117.383 15.7131 118.014 15.5776 118.566C15.4448 119.116 15.2521 119.579 14.9995 119.957C14.7495 120.335 14.4448 120.621 14.0854 120.816C13.7287 121.012 13.325 121.109 12.8745 121.109C12.4266 121.109 12.0269 121.021 11.6753 120.844C11.3263 120.664 11.0399 120.415 10.8159 120.098C10.5946 119.777 10.4526 119.406 10.3901 118.984H11.3433C11.4292 119.352 11.5998 119.655 11.855 119.895C12.1128 120.132 12.4526 120.25 12.8745 120.25C13.4917 120.25 13.9787 119.98 14.3354 119.441C14.6948 118.902 14.8745 118.141 14.8745 117.156H14.812C14.6662 117.375 14.493 117.564 14.2925 117.723C14.092 117.882 13.8693 118.004 13.6245 118.09C13.3797 118.176 13.1193 118.219 12.8433 118.219C12.3849 118.219 11.9644 118.105 11.5815 117.879C11.2013 117.65 10.8966 117.336 10.6675 116.937C10.4409 116.536 10.3276 116.078 10.3276 115.562C10.3276 115.073 10.437 114.625 10.6558 114.219C10.8771 113.81 11.187 113.484 11.5854 113.242C11.9865 113 12.4578 112.883 12.9995 112.891ZM12.9995 113.75C12.6714 113.75 12.3758 113.832 12.1128 113.996C11.8524 114.158 11.6453 114.376 11.4917 114.652C11.3407 114.926 11.2651 115.229 11.2651 115.562C11.2651 115.896 11.3381 116.199 11.4839 116.473C11.6323 116.743 11.8341 116.96 12.0894 117.121C12.3472 117.28 12.6401 117.359 12.9683 117.359C13.2157 117.359 13.4461 117.311 13.6597 117.215C13.8732 117.116 14.0594 116.982 14.2183 116.812C14.3797 116.641 14.506 116.447 14.5972 116.23C14.6883 116.012 14.7339 115.784 14.7339 115.547C14.7339 115.234 14.6584 114.941 14.5073 114.668C14.3589 114.395 14.1532 114.173 13.8901 114.004C13.6297 113.835 13.3328 113.75 12.9995 113.75Z" fill="black"/>
<path d="M35.5605 121V120.297L38.2012 117.406C38.5111 117.068 38.7663 116.773 38.9668 116.523C39.1673 116.271 39.3158 116.034 39.4121 115.812C39.5111 115.589 39.5605 115.354 39.5605 115.109C39.5605 114.828 39.4928 114.585 39.3574 114.379C39.2246 114.173 39.0423 114.014 38.8105 113.902C38.5788 113.79 38.3184 113.734 38.0293 113.734C37.722 113.734 37.4538 113.798 37.2246 113.926C36.998 114.051 36.8223 114.227 36.6973 114.453C36.5749 114.68 36.5137 114.945 36.5137 115.25H35.5918C35.5918 114.781 35.6999 114.37 35.916 114.016C36.1322 113.661 36.4264 113.385 36.7988 113.187C37.1738 112.99 37.5944 112.891 38.0605 112.891C38.5293 112.891 38.9447 112.99 39.3066 113.187C39.6686 113.385 39.9525 113.652 40.1582 113.988C40.3639 114.324 40.4668 114.698 40.4668 115.109C40.4668 115.404 40.4134 115.691 40.3066 115.973C40.2025 116.251 40.0202 116.562 39.7598 116.906C39.502 117.247 39.1439 117.664 38.6855 118.156L36.8887 120.078V120.141H40.6074V121H35.5605ZM44.8301 121.109C44.2415 121.109 43.7402 120.949 43.3262 120.629C42.9121 120.306 42.5957 119.839 42.377 119.227C42.1582 118.612 42.0488 117.87 42.0488 117C42.0488 116.135 42.1582 115.397 42.377 114.785C42.5983 114.171 42.916 113.702 43.3301 113.379C43.7467 113.053 44.2467 112.891 44.8301 112.891C45.4134 112.891 45.9121 113.053 46.3262 113.379C46.7428 113.702 47.0605 114.171 47.2793 114.785C47.5007 115.397 47.6113 116.135 47.6113 117C47.6113 117.87 47.502 118.612 47.2832 119.227C47.0645 119.839 46.748 120.306 46.334 120.629C45.9199 120.949 45.4186 121.109 44.8301 121.109ZM44.8301 120.25C45.4134 120.25 45.8665 119.969 46.1895 119.406C46.5124 118.844 46.6738 118.042 46.6738 117C46.6738 116.307 46.5996 115.717 46.4512 115.23C46.3053 114.743 46.0944 114.372 45.8184 114.117C45.5449 113.862 45.2155 113.734 44.8301 113.734C44.252 113.734 43.8001 114.02 43.4746 114.59C43.1491 115.158 42.9863 115.961 42.9863 117C42.9863 117.693 43.0592 118.281 43.2051 118.766C43.3509 119.25 43.5605 119.618 43.834 119.871C44.11 120.124 44.4421 120.25 44.8301 120.25Z" fill="black"/>
<path d="M67.4414 121V120.297L70.082 117.406C70.3919 117.068 70.6471 116.773 70.8477 116.523C71.0482 116.271 71.1966 116.034 71.293 115.812C71.3919 115.589 71.4414 115.354 71.4414 115.109C71.4414 114.828 71.3737 114.585 71.2383 114.379C71.1055 114.173 70.9232 114.014 70.6914 113.902C70.4596 113.79 70.1992 113.734 69.9102 113.734C69.6029 113.734 69.3346 113.798 69.1055 113.926C68.8789 114.051 68.7031 114.227 68.5781 114.453C68.4557 114.68 68.3945 114.945 68.3945 115.25H67.4727C67.4727 114.781 67.5807 114.37 67.7969 114.016C68.013 113.661 68.3073 113.385 68.6797 113.187C69.0547 112.99 69.4753 112.891 69.9414 112.891C70.4102 112.891 70.8255 112.99 71.1875 113.187C71.5495 113.385 71.8333 113.652 72.0391 113.988C72.2448 114.324 72.3477 114.698 72.3477 115.109C72.3477 115.404 72.2943 115.691 72.1875 115.973C72.0833 116.251 71.901 116.562 71.6406 116.906C71.3828 117.247 71.0247 117.664 70.5664 118.156L68.7695 120.078V120.141H72.4883V121H67.4414ZM76.9141 113V121H75.9453V114.016H75.8984L73.9453 115.312V114.328L75.9453 113H76.9141Z" fill="black"/>
<path d="M97.668 121V120.297L100.309 117.406C100.618 117.068 100.874 116.773 101.074 116.523C101.275 116.271 101.423 116.034 101.52 115.812C101.618 115.589 101.668 115.354 101.668 115.109C101.668 114.828 101.6 114.585 101.465 114.379C101.332 114.173 101.15 114.014 100.918 113.902C100.686 113.79 100.426 113.734 100.137 113.734C99.8294 113.734 99.5612 113.798 99.332 113.926C99.1055 114.051 98.9297 114.227 98.8047 114.453C98.6823 114.68 98.6211 114.945 98.6211 115.25H97.6992C97.6992 114.781 97.8073 114.37 98.0234 114.016C98.2396 113.661 98.5339 113.385 98.9063 113.187C99.2813 112.99 99.7018 112.891 100.168 112.891C100.637 112.891 101.052 112.99 101.414 113.187C101.776 113.385 102.06 113.652 102.266 113.988C102.471 114.324 102.574 114.698 102.574 115.109C102.574 115.404 102.521 115.691 102.414 115.973C102.31 116.251 102.128 116.562 101.867 116.906C101.609 117.247 101.251 117.664 100.793 118.156L98.9961 120.078V120.141H102.715V121H97.668ZM104.328 121V120.297L106.969 117.406C107.279 117.068 107.534 116.773 107.734 116.523C107.935 116.271 108.083 116.034 108.18 115.812C108.279 115.589 108.328 115.354 108.328 115.109C108.328 114.828 108.26 114.585 108.125 114.379C107.992 114.173 107.81 114.014 107.578 113.902C107.346 113.79 107.086 113.734 106.797 113.734C106.49 113.734 106.221 113.798 105.992 113.926C105.766 114.051 105.59 114.227 105.465 114.453C105.342 114.68 105.281 114.945 105.281 115.25H104.359C104.359 114.781 104.467 114.37 104.684 114.016C104.9 113.661 105.194 113.385 105.566 113.187C105.941 112.99 106.362 112.891 106.828 112.891C107.297 112.891 107.712 112.99 108.074 113.187C108.436 113.385 108.72 113.652 108.926 113.988C109.132 114.324 109.234 114.698 109.234 115.109C109.234 115.404 109.181 115.691 109.074 115.973C108.97 116.251 108.788 116.562 108.527 116.906C108.27 117.247 107.911 117.664 107.453 118.156L105.656 120.078V120.141H109.375V121H104.328Z" fill="black"/>
<path d="M128.496 121V120.297L131.137 117.406C131.447 117.068 131.702 116.773 131.902 116.523C132.103 116.271 132.251 116.034 132.348 115.812C132.447 115.589 132.496 115.354 132.496 115.109C132.496 114.828 132.428 114.585 132.293 114.379C132.16 114.173 131.978 114.014 131.746 113.902C131.514 113.79 131.254 113.734 130.965 113.734C130.658 113.734 130.389 113.798 130.16 113.926C129.934 114.051 129.758 114.227 129.633 114.453C129.51 114.68 129.449 114.945 129.449 115.25H128.527C128.527 114.781 128.635 114.37 128.852 114.016C129.068 113.661 129.362 113.385 129.734 113.187C130.109 112.99 130.53 112.891 130.996 112.891C131.465 112.891 131.88 112.99 132.242 113.187C132.604 113.385 132.888 113.652 133.094 113.988C133.299 114.324 133.402 114.698 133.402 115.109C133.402 115.404 133.349 115.691 133.242 115.973C133.138 116.251 132.956 116.562 132.695 116.906C132.438 117.247 132.079 117.664 131.621 118.156L129.824 120.078V120.141H133.543V121H128.496ZM137.859 121.109C137.344 121.109 136.884 121.021 136.48 120.844C136.079 120.667 135.76 120.421 135.523 120.105C135.289 119.788 135.161 119.419 135.141 119H136.125C136.146 119.258 136.234 119.48 136.391 119.668C136.547 119.853 136.751 119.996 137.004 120.098C137.257 120.199 137.536 120.25 137.844 120.25C138.188 120.25 138.492 120.19 138.758 120.07C139.023 119.951 139.232 119.784 139.383 119.57C139.534 119.357 139.609 119.109 139.609 118.828C139.609 118.534 139.536 118.275 139.391 118.051C139.245 117.824 139.031 117.647 138.75 117.52C138.469 117.392 138.125 117.328 137.719 117.328H137.078V116.469H137.719C138.036 116.469 138.315 116.411 138.555 116.297C138.797 116.182 138.986 116.021 139.121 115.812C139.259 115.604 139.328 115.359 139.328 115.078C139.328 114.807 139.268 114.572 139.148 114.371C139.029 114.171 138.859 114.014 138.641 113.902C138.424 113.79 138.169 113.734 137.875 113.734C137.599 113.734 137.339 113.785 137.094 113.887C136.852 113.986 136.654 114.13 136.5 114.32C136.346 114.508 136.263 114.734 136.25 115H135.313C135.328 114.581 135.454 114.214 135.691 113.898C135.928 113.581 136.238 113.333 136.621 113.156C137.007 112.979 137.43 112.891 137.891 112.891C138.385 112.891 138.81 112.991 139.164 113.191C139.518 113.389 139.79 113.651 139.98 113.977C140.171 114.302 140.266 114.654 140.266 115.031C140.266 115.482 140.147 115.866 139.91 116.184C139.676 116.501 139.357 116.721 138.953 116.844V116.906C139.458 116.99 139.853 117.204 140.137 117.551C140.421 117.895 140.563 118.32 140.563 118.828C140.563 119.263 140.444 119.654 140.207 120C139.973 120.344 139.652 120.615 139.246 120.812C138.84 121.01 138.378 121.109 137.859 121.109Z" fill="black"/>
<path d="M159.555 121V120.297L162.196 117.406C162.506 117.068 162.761 116.773 162.961 116.523C163.162 116.271 163.31 116.034 163.407 115.812C163.506 115.589 163.555 115.354 163.555 115.109C163.555 114.828 163.487 114.585 163.352 114.379C163.219 114.173 163.037 114.014 162.805 113.902C162.573 113.79 162.313 113.734 162.024 113.734C161.717 113.734 161.448 113.798 161.219 113.926C160.993 114.051 160.817 114.227 160.692 114.453C160.569 114.68 160.508 114.945 160.508 115.25H159.586C159.586 114.781 159.694 114.37 159.911 114.016C160.127 113.661 160.421 113.385 160.793 113.187C161.168 112.99 161.589 112.891 162.055 112.891C162.524 112.891 162.939 112.99 163.301 113.187C163.663 113.385 163.947 113.652 164.153 113.988C164.359 114.324 164.461 114.698 164.461 115.109C164.461 115.404 164.408 115.691 164.301 115.973C164.197 116.251 164.015 116.562 163.754 116.906C163.497 117.247 163.139 117.664 162.68 118.156L160.883 120.078V120.141H164.602V121H159.555ZM165.856 119.359V118.562L169.372 113H169.95V114.234H169.559L166.903 118.437V118.5H171.637V119.359H165.856ZM169.622 121V119.117V118.746V113H170.543V121H169.622Z" fill="black"/>
<path d="M190.652 121V120.297L193.292 117.406C193.602 117.068 193.858 116.773 194.058 116.523C194.259 116.271 194.407 116.034 194.503 115.812C194.602 115.589 194.652 115.354 194.652 115.109C194.652 114.828 194.584 114.585 194.449 114.379C194.316 114.173 194.134 114.014 193.902 113.902C193.67 113.79 193.41 113.734 193.121 113.734C192.813 113.734 192.545 113.798 192.316 113.926C192.089 114.051 191.914 114.227 191.789 114.453C191.666 114.68 191.605 114.945 191.605 115.25H190.683C190.683 114.781 190.791 114.37 191.007 114.016C191.223 113.661 191.518 113.385 191.89 113.187C192.265 112.99 192.686 112.891 193.152 112.891C193.621 112.891 194.036 112.99 194.398 113.187C194.76 113.385 195.044 113.652 195.25 113.988C195.455 114.324 195.558 114.698 195.558 115.109C195.558 115.404 195.505 115.691 195.398 115.973C195.294 116.251 195.111 116.562 194.851 116.906C194.593 117.247 194.235 117.664 193.777 118.156L191.98 120.078V120.141H195.699V121H190.652ZM199.812 121.109C199.354 121.109 198.941 121.018 198.574 120.836C198.207 120.654 197.912 120.404 197.691 120.086C197.47 119.768 197.348 119.406 197.328 119H198.265C198.302 119.362 198.466 119.661 198.757 119.898C199.052 120.133 199.403 120.25 199.812 120.25C200.14 120.25 200.432 120.173 200.687 120.02C200.945 119.866 201.147 119.655 201.292 119.387C201.441 119.116 201.515 118.81 201.515 118.469C201.515 118.12 201.438 117.809 201.285 117.535C201.134 117.259 200.925 117.042 200.66 116.883C200.394 116.724 200.091 116.643 199.75 116.641C199.505 116.638 199.253 116.676 198.996 116.754C198.738 116.829 198.526 116.927 198.359 117.047L197.453 116.937L197.937 113H202.093V113.859H198.75L198.468 116.219H198.515C198.679 116.089 198.885 115.98 199.132 115.895C199.38 115.809 199.638 115.766 199.906 115.766C200.395 115.766 200.832 115.883 201.214 116.117C201.6 116.349 201.902 116.667 202.121 117.07C202.342 117.474 202.453 117.935 202.453 118.453C202.453 118.964 202.338 119.419 202.109 119.82C201.882 120.219 201.57 120.534 201.171 120.766C200.773 120.995 200.32 121.109 199.812 121.109Z" fill="black"/>
<path d="M8.25391 88V96H7.28516V89.0156H7.23828L5.28516 90.3125V89.3281L7.28516 88H8.25391ZM10.5547 96V95.2969L13.1953 92.4062C13.5052 92.0677 13.7604 91.7734 13.9609 91.5234C14.1615 91.2708 14.3099 91.0339 14.4063 90.8125C14.5052 90.5885 14.5547 90.3542 14.5547 90.1094C14.5547 89.8281 14.487 89.5846 14.3516 89.3789C14.2188 89.1732 14.0365 89.0143 13.8047 88.9023C13.5729 88.7904 13.3125 88.7344 13.0234 88.7344C12.7161 88.7344 12.4479 88.7982 12.2188 88.9258C11.9922 89.0508 11.8164 89.2266 11.6914 89.4531C11.569 89.6797 11.5078 89.9453 11.5078 90.25H10.5859C10.5859 89.7812 10.694 89.3698 10.9102 89.0156C11.1263 88.6615 11.4206 88.3854 11.793 88.1875C12.168 87.9896 12.5885 87.8906 13.0547 87.8906C13.5234 87.8906 13.9388 87.9896 14.3008 88.1875C14.6628 88.3854 14.9466 88.6523 15.1523 88.9883C15.3581 89.3242 15.4609 89.6979 15.4609 90.1094C15.4609 90.4036 15.4076 90.6914 15.3008 90.9727C15.1966 91.2513 15.0143 91.5625 14.7539 91.9062C14.4961 92.2474 14.138 92.6641 13.6797 93.1562L11.8828 95.0781V95.1406H15.6016V96H10.5547Z" fill="black"/>
<path d="M39.082 88V96H38.1133V89.0156H38.0664L36.1133 90.3125V89.3281L38.1133 88H39.082ZM44.0859 96.1094C43.5703 96.1094 43.1107 96.0208 42.707 95.8437C42.306 95.6667 41.987 95.4206 41.75 95.1055C41.5156 94.7878 41.388 94.4193 41.3672 94H42.3516C42.3724 94.2578 42.4609 94.4805 42.6172 94.668C42.7734 94.8529 42.9779 94.9961 43.2305 95.0977C43.4831 95.1992 43.763 95.25 44.0703 95.25C44.4141 95.25 44.7188 95.1901 44.9844 95.0703C45.25 94.9505 45.4583 94.7839 45.6094 94.5703C45.7604 94.3568 45.8359 94.1094 45.8359 93.8281C45.8359 93.5339 45.763 93.2747 45.6172 93.0508C45.4714 92.8242 45.2578 92.6471 44.9766 92.5195C44.6953 92.3919 44.3516 92.3281 43.9453 92.3281H43.3047V91.4687H43.9453C44.263 91.4687 44.5417 91.4115 44.7813 91.2969C45.0234 91.1823 45.2122 91.0208 45.3477 90.8125C45.4857 90.6042 45.5547 90.3594 45.5547 90.0781C45.5547 89.8073 45.4948 89.5716 45.375 89.3711C45.2552 89.1706 45.0859 89.0143 44.8672 88.9023C44.651 88.7904 44.3958 88.7344 44.1016 88.7344C43.8255 88.7344 43.5651 88.7852 43.3203 88.8867C43.0781 88.9857 42.8802 89.1302 42.7266 89.3203C42.5729 89.5078 42.4896 89.7344 42.4766 90H41.5391C41.5547 89.5807 41.681 89.2135 41.918 88.8984C42.1549 88.5807 42.4648 88.3333 42.8477 88.1562C43.2331 87.9792 43.6563 87.8906 44.1172 87.8906C44.612 87.8906 45.0365 87.9909 45.3906 88.1914C45.7448 88.3893 46.0169 88.651 46.207 88.9766C46.3971 89.3021 46.4922 89.6536 46.4922 90.0313C46.4922 90.4818 46.3737 90.8659 46.1367 91.1836C45.9023 91.5013 45.5833 91.7214 45.1797 91.8438V91.9062C45.6849 91.9896 46.0794 92.2044 46.3633 92.5508C46.6471 92.8945 46.7891 93.3203 46.7891 93.8281C46.7891 94.263 46.6706 94.6536 46.4336 95C46.1992 95.3437 45.8789 95.6146 45.4727 95.8125C45.0664 96.0104 44.6042 96.1094 44.0859 96.1094Z" fill="black"/>
<path d="M70.0552 88V96H69.0864V89.0156H69.0396L67.0864 90.3125V89.3281L69.0864 88H70.0552ZM72.1685 94.3594V93.5625L75.6841 88H76.2622V89.2344H75.8716L73.2153 93.4375V93.5H77.9497V94.3594H72.1685ZM75.9341 96V94.1172V93.7461V88H76.856V96H75.9341Z" fill="black"/>
<path d="M101.238 88V96H100.269V89.0156H100.222L98.269 90.3125V89.3281L100.269 88H101.238ZM106.039 96.1094C105.58 96.1094 105.167 96.0182 104.8 95.8359C104.433 95.6536 104.139 95.4036 103.917 95.0859C103.696 94.7682 103.575 94.4062 103.554 94H104.492C104.528 94.362 104.692 94.6615 104.984 94.8984C105.278 95.1328 105.63 95.25 106.039 95.25C106.367 95.25 106.658 95.1732 106.914 95.0195C107.171 94.8659 107.373 94.6549 107.519 94.3867C107.667 94.1159 107.742 93.8099 107.742 93.4687C107.742 93.1198 107.665 92.8086 107.511 92.5352C107.36 92.2591 107.152 92.0417 106.886 91.8828C106.621 91.724 106.317 91.6432 105.976 91.6406C105.731 91.638 105.48 91.6758 105.222 91.7539C104.964 91.8294 104.752 91.9271 104.585 92.0469L103.679 91.9375L104.164 88H108.32V88.8594H104.976L104.695 91.2187H104.742C104.906 91.0885 105.111 90.9805 105.359 90.8945C105.606 90.8086 105.864 90.7656 106.132 90.7656C106.622 90.7656 107.058 90.8828 107.441 91.1172C107.826 91.349 108.128 91.6667 108.347 92.0703C108.569 92.474 108.679 92.9349 108.679 93.4531C108.679 93.9635 108.565 94.4193 108.335 94.8203C108.109 95.2187 107.796 95.5339 107.398 95.7656C107 95.9948 106.546 96.1094 106.039 96.1094Z" fill="black"/>
<path d="M132.152 88V96H131.183V89.0156H131.136L129.183 90.3125V89.3281L131.183 88H132.152ZM137.109 96.1094C136.781 96.1042 136.453 96.0417 136.125 95.9219C135.796 95.8021 135.497 95.6003 135.226 95.3164C134.955 95.0299 134.738 94.6432 134.574 94.1562C134.41 93.6667 134.328 93.0521 134.328 92.3125C134.328 91.6042 134.394 90.9766 134.527 90.4297C134.66 89.8802 134.852 89.418 135.105 89.043C135.358 88.6654 135.662 88.3789 136.019 88.1836C136.378 87.9883 136.783 87.8906 137.234 87.8906C137.682 87.8906 138.08 87.9805 138.429 88.1602C138.781 88.3372 139.067 88.5846 139.289 88.9023C139.51 89.2201 139.653 89.5859 139.718 90H138.765C138.677 89.6406 138.505 89.3424 138.25 89.1055C137.994 88.8685 137.656 88.75 137.234 88.75C136.614 88.75 136.126 89.0195 135.769 89.5586C135.415 90.0977 135.236 90.8542 135.234 91.8281H135.296C135.442 91.6068 135.615 91.418 135.816 91.2617C136.019 91.1029 136.243 90.9805 136.488 90.8945C136.733 90.8086 136.992 90.7656 137.265 90.7656C137.723 90.7656 138.143 90.8802 138.523 91.1094C138.903 91.3359 139.208 91.6497 139.437 92.0508C139.666 92.4492 139.781 92.9062 139.781 93.4219C139.781 93.9167 139.67 94.3698 139.449 94.7812C139.227 95.1901 138.916 95.5156 138.515 95.7578C138.117 95.9974 137.648 96.1146 137.109 96.1094ZM137.109 95.25C137.437 95.25 137.731 95.168 137.992 95.0039C138.255 94.8398 138.462 94.6198 138.613 94.3437C138.766 94.0677 138.843 93.7604 138.843 93.4219C138.843 93.0911 138.769 92.7904 138.621 92.5195C138.475 92.2461 138.273 92.0286 138.015 91.8672C137.76 91.7057 137.468 91.625 137.14 91.625C136.893 91.625 136.662 91.6745 136.449 91.7734C136.235 91.8698 136.048 92.0026 135.886 92.1719C135.727 92.3411 135.602 92.5352 135.511 92.7539C135.42 92.9701 135.375 93.1979 135.375 93.4375C135.375 93.7552 135.449 94.0521 135.597 94.3281C135.748 94.6042 135.954 94.8268 136.214 94.9961C136.477 95.1654 136.776 95.25 137.109 95.25Z" fill="black"/>
<path d="M163.442 88V96H162.473V89.0156H162.426L160.473 90.3125V89.3281L162.473 88H163.442ZM165.993 96L169.571 88.9219V88.8594H165.446V88H170.571V88.9062L167.008 96H165.993Z" fill="black"/>
<path d="M194.195 88V96H193.226V89.0156H193.179L191.226 90.3125V89.3281L193.226 88H194.195ZM199.058 96.1094C198.522 96.1094 198.048 96.0143 197.636 95.8242C197.227 95.6315 196.908 95.3672 196.679 95.0312C196.45 94.6927 196.337 94.3073 196.339 93.875C196.337 93.5365 196.403 93.224 196.539 92.9375C196.674 92.6484 196.859 92.4076 197.093 92.2148C197.33 92.0195 197.595 91.8958 197.886 91.8438V91.7969C197.503 91.6979 197.199 91.4831 196.972 91.1523C196.746 90.819 196.634 90.4401 196.636 90.0156C196.634 89.6094 196.736 89.2461 196.945 88.9258C197.153 88.6055 197.44 88.3529 197.804 88.168C198.171 87.9831 198.589 87.8906 199.058 87.8906C199.522 87.8906 199.936 87.9831 200.3 88.168C200.665 88.3529 200.951 88.6055 201.16 88.9258C201.371 89.2461 201.477 89.6094 201.48 90.0156C201.477 90.4401 201.361 90.819 201.132 91.1523C200.906 91.4831 200.605 91.6979 200.23 91.7969V91.8438C200.519 91.8958 200.779 92.0195 201.011 92.2148C201.243 92.4076 201.428 92.6484 201.566 92.9375C201.704 93.224 201.774 93.5365 201.777 93.875C201.774 94.3073 201.657 94.6927 201.425 95.0312C201.196 95.3672 200.877 95.6315 200.468 95.8242C200.062 96.0143 199.592 96.1094 199.058 96.1094ZM199.058 95.25C199.42 95.25 199.733 95.1914 199.996 95.0742C200.259 94.957 200.462 94.7917 200.605 94.5781C200.748 94.3646 200.821 94.1146 200.824 93.8281C200.821 93.526 200.743 93.2591 200.589 93.0273C200.436 92.7956 200.226 92.6133 199.96 92.4805C199.697 92.3477 199.397 92.2812 199.058 92.2812C198.717 92.2812 198.412 92.3477 198.144 92.4805C197.878 92.6133 197.669 92.7956 197.515 93.0273C197.364 93.2591 197.29 93.526 197.292 93.8281C197.29 94.1146 197.359 94.3646 197.5 94.5781C197.643 94.7917 197.847 94.957 198.113 95.0742C198.378 95.1914 198.694 95.25 199.058 95.25ZM199.058 91.4531C199.345 91.4531 199.598 91.3958 199.82 91.2812C200.044 91.1667 200.22 91.0065 200.347 90.8008C200.475 90.5951 200.54 90.3542 200.542 90.0781C200.54 89.8073 200.476 89.5716 200.351 89.3711C200.226 89.168 200.053 89.0117 199.832 88.9023C199.61 88.7904 199.352 88.7344 199.058 88.7344C198.759 88.7344 198.497 88.7904 198.273 88.9023C198.049 89.0117 197.876 89.168 197.753 89.3711C197.631 89.5716 197.571 89.8073 197.574 90.0781C197.571 90.3542 197.632 90.5951 197.757 90.8008C197.885 91.0065 198.061 91.1667 198.285 91.2812C198.509 91.3958 198.766 91.4531 199.058 91.4531Z" fill="black"/>
<path d="M10.4819 71.1094C10.0236 71.1094 9.61084 71.0182 9.24365 70.8359C8.87646 70.6536 8.58219 70.4036 8.36084 70.0859C8.13949 69.7682 8.01839 69.4062 7.99756 69H8.93506C8.97152 69.362 9.13558 69.6615 9.42725 69.8984C9.72152 70.1328 10.0731 70.25 10.4819 70.25C10.8101 70.25 11.1017 70.1732 11.3569 70.0195C11.6147 69.8659 11.8166 69.6549 11.9624 69.3867C12.1108 69.1159 12.1851 68.8099 12.1851 68.4687C12.1851 68.1198 12.1082 67.8086 11.9546 67.5352C11.8035 67.2591 11.5952 67.0417 11.3296 66.8828C11.064 66.724 10.7606 66.6432 10.4194 66.6406C10.1746 66.638 9.92334 66.6758 9.66553 66.7539C9.40771 66.8294 9.19548 66.9271 9.02881 67.0469L8.12256 66.9375L8.60693 63H12.7632V63.8594H9.41943L9.13818 66.2187H9.18506C9.34912 66.0885 9.55485 65.9805 9.80225 65.8945C10.0496 65.8086 10.3075 65.7656 10.5757 65.7656C11.0653 65.7656 11.5015 65.8828 11.8843 66.1172C12.2697 66.349 12.5718 66.6667 12.7905 67.0703C13.0119 67.474 13.1226 67.9349 13.1226 68.4531C13.1226 68.9635 13.008 69.4193 12.7788 69.8203C12.5522 70.2187 12.2397 70.5339 11.8413 70.7656C11.4429 70.9948 10.9897 71.1094 10.4819 71.1094Z" fill="black"/>
<path d="M41.5522 71.1094C41.2241 71.1042 40.896 71.0417 40.5679 70.9219C40.2397 70.8021 39.9403 70.6003 39.6694 70.3164C39.3986 70.0299 39.1812 69.6432 39.0171 69.1562C38.853 68.6667 38.771 68.0521 38.771 67.3125C38.771 66.6042 38.8374 65.9766 38.9702 65.4297C39.103 64.8802 39.2957 64.418 39.5483 64.043C39.8009 63.6654 40.1056 63.3789 40.4624 63.1836C40.8218 62.9883 41.2267 62.8906 41.6772 62.8906C42.1252 62.8906 42.5236 62.9805 42.8726 63.1602C43.2241 63.3372 43.5106 63.5846 43.7319 63.9023C43.9533 64.2201 44.0965 64.5859 44.1616 65H43.2085C43.12 64.6406 42.9481 64.3424 42.6929 64.1055C42.4377 63.8685 42.0991 63.75 41.6772 63.75C41.0575 63.75 40.5692 64.0195 40.2124 64.5586C39.8582 65.0977 39.6799 65.8542 39.6772 66.8281H39.7397C39.8856 66.6068 40.0588 66.418 40.2593 66.2617C40.4624 66.1029 40.6864 65.9805 40.9312 65.8945C41.1759 65.8086 41.4351 65.7656 41.7085 65.7656C42.1668 65.7656 42.5861 65.8802 42.9663 66.1094C43.3465 66.3359 43.6512 66.6497 43.8804 67.0508C44.1095 67.4492 44.2241 67.9062 44.2241 68.4219C44.2241 68.9167 44.1134 69.3698 43.8921 69.7812C43.6707 70.1901 43.3595 70.5156 42.9585 70.7578C42.5601 70.9974 42.0913 71.1146 41.5522 71.1094ZM41.5522 70.25C41.8804 70.25 42.1746 70.168 42.4351 70.0039C42.6981 69.8398 42.9051 69.6198 43.0562 69.3437C43.2098 69.0677 43.2866 68.7604 43.2866 68.4219C43.2866 68.0911 43.2124 67.7904 43.064 67.5195C42.9181 67.2461 42.7163 67.0286 42.4585 66.8672C42.2033 66.7057 41.9116 66.625 41.5835 66.625C41.3361 66.625 41.1056 66.6745 40.8921 66.7734C40.6785 66.8698 40.491 67.0026 40.3296 67.1719C40.1707 67.3411 40.0457 67.5352 39.9546 67.7539C39.8634 67.9701 39.8179 68.1979 39.8179 68.4375C39.8179 68.7552 39.8921 69.0521 40.0405 69.3281C40.1916 69.6042 40.3973 69.8268 40.6577 69.9961C40.9207 70.1654 41.2189 70.25 41.5522 70.25Z" fill="black"/>
<path d="M70.436 71L74.0142 63.9219V63.8594H69.8892V63H75.0142V63.9062L71.4517 71H70.436Z" fill="black"/>
<path d="M103.501 71.1094C102.965 71.1094 102.491 71.0143 102.08 70.8242C101.671 70.6315 101.352 70.3672 101.123 70.0312C100.893 69.6927 100.78 69.3073 100.783 68.875C100.78 68.5365 100.847 68.224 100.982 67.9375C101.117 67.6484 101.302 67.4076 101.537 67.2148C101.774 67.0195 102.038 66.8958 102.33 66.8438V66.7969C101.947 66.6979 101.642 66.4831 101.416 66.1523C101.189 65.819 101.077 65.4401 101.08 65.0156C101.077 64.6094 101.18 64.2461 101.388 63.9258C101.597 63.6055 101.883 63.3529 102.248 63.168C102.615 62.9831 103.033 62.8906 103.501 62.8906C103.965 62.8906 104.379 62.9831 104.744 63.168C105.108 63.3529 105.395 63.6055 105.603 63.9258C105.814 64.2461 105.921 64.6094 105.923 65.0156C105.921 65.4401 105.805 65.819 105.576 66.1523C105.349 66.4831 105.048 66.6979 104.673 66.7969V66.8438C104.962 66.8958 105.223 67.0195 105.455 67.2148C105.686 67.4076 105.871 67.6484 106.009 67.9375C106.147 68.224 106.218 68.5365 106.22 68.875C106.218 69.3073 106.1 69.6927 105.869 70.0312C105.639 70.3672 105.32 70.6315 104.912 70.8242C104.505 71.0143 104.035 71.1094 103.501 71.1094ZM103.501 70.25C103.863 70.25 104.176 70.1914 104.439 70.0742C104.702 69.957 104.905 69.7917 105.048 69.5781C105.192 69.3646 105.264 69.1146 105.267 68.8281C105.264 68.526 105.186 68.2591 105.033 68.0273C104.879 67.7956 104.669 67.6133 104.404 67.4805C104.141 67.3477 103.84 67.2812 103.501 67.2812C103.16 67.2812 102.856 67.3477 102.587 67.4805C102.322 67.6133 102.112 67.7956 101.958 68.0273C101.807 68.2591 101.733 68.526 101.736 68.8281C101.733 69.1146 101.802 69.3646 101.943 69.5781C102.086 69.7917 102.291 69.957 102.556 70.0742C102.822 70.1914 103.137 70.25 103.501 70.25ZM103.501 66.4531C103.788 66.4531 104.042 66.3958 104.263 66.2812C104.487 66.1667 104.663 66.0065 104.791 65.8008C104.918 65.5951 104.983 65.3542 104.986 65.0781C104.983 64.8073 104.919 64.5716 104.794 64.3711C104.669 64.168 104.496 64.0117 104.275 63.9023C104.054 63.7904 103.796 63.7344 103.501 63.7344C103.202 63.7344 102.94 63.7904 102.716 63.9023C102.492 64.0117 102.319 64.168 102.197 64.3711C102.074 64.5716 102.014 64.8073 102.017 65.0781C102.014 65.3542 102.076 65.5951 102.201 65.8008C102.328 66.0065 102.504 66.1667 102.728 66.2812C102.952 66.3958 103.21 66.4531 103.501 66.4531Z" fill="black"/>
<path d="M134.443 62.8906C134.771 62.8932 135.099 62.9557 135.427 63.0781C135.755 63.2005 136.055 63.4036 136.326 63.6875C136.597 63.9687 136.814 64.3529 136.978 64.8398C137.142 65.3268 137.224 65.9375 137.224 66.6719C137.224 67.3828 137.156 68.0143 137.021 68.5664C136.888 69.1159 136.695 69.5794 136.443 69.957C136.193 70.3346 135.888 70.6211 135.529 70.8164C135.172 71.0117 134.768 71.1094 134.318 71.1094C133.87 71.1094 133.47 71.0208 133.119 70.8437C132.77 70.6641 132.483 70.4154 132.259 70.0977C132.038 69.7773 131.896 69.4062 131.833 68.9844H132.787C132.873 69.3516 133.043 69.6549 133.298 69.8945C133.556 70.1315 133.896 70.25 134.318 70.25C134.935 70.25 135.422 69.9805 135.779 69.4414C136.138 68.9023 136.318 68.1406 136.318 67.1562H136.255C136.11 67.375 135.936 67.5638 135.736 67.7227C135.535 67.8815 135.313 68.0039 135.068 68.0898C134.823 68.1758 134.563 68.2188 134.287 68.2188C133.828 68.2188 133.408 68.1055 133.025 67.8789C132.645 67.6497 132.34 67.3359 132.111 66.9375C131.884 66.5365 131.771 66.0781 131.771 65.5625C131.771 65.0729 131.88 64.625 132.099 64.2187C132.32 63.8099 132.63 63.4844 133.029 63.2422C133.43 63 133.901 62.8828 134.443 62.8906ZM134.443 63.75C134.115 63.75 133.819 63.832 133.556 63.9961C133.296 64.1576 133.089 64.3763 132.935 64.6523C132.784 64.9258 132.708 65.2292 132.708 65.5625C132.708 65.8958 132.781 66.1992 132.927 66.4727C133.076 66.7435 133.278 66.9596 133.533 67.1211C133.791 67.2799 134.083 67.3594 134.412 67.3594C134.659 67.3594 134.889 67.3112 135.103 67.2148C135.317 67.1159 135.503 66.9818 135.662 66.8125C135.823 66.6406 135.949 66.4466 136.041 66.2305C136.132 66.0117 136.177 65.7839 136.177 65.5469C136.177 65.2344 136.102 64.9414 135.951 64.668C135.802 64.3945 135.597 64.1732 135.333 64.0039C135.073 63.8346 134.776 63.75 134.443 63.75Z" fill="black"/>
<path d="M163.146 63V71H162.178V64.0156H162.131L160.178 65.3125V64.3281L162.178 63H163.146ZM168.057 71.1094C167.468 71.1094 166.967 70.9492 166.553 70.6289C166.139 70.306 165.822 69.8385 165.604 69.2266C165.385 68.612 165.275 67.8698 165.275 67C165.275 66.1354 165.385 65.3971 165.604 64.7852C165.825 64.1706 166.143 63.7018 166.557 63.3789C166.973 63.0534 167.473 62.8906 168.057 62.8906C168.64 62.8906 169.139 63.0534 169.553 63.3789C169.969 63.7018 170.287 64.1706 170.506 64.7852C170.727 65.3971 170.838 66.1354 170.838 67C170.838 67.8698 170.729 68.612 170.51 69.2266C170.291 69.8385 169.975 70.306 169.561 70.6289C169.146 70.9492 168.645 71.1094 168.057 71.1094ZM168.057 70.25C168.64 70.25 169.093 69.9687 169.416 69.4062C169.739 68.8437 169.9 68.0417 169.9 67C169.9 66.3073 169.826 65.7174 169.678 65.2305C169.532 64.7435 169.321 64.3724 169.045 64.1172C168.771 63.862 168.442 63.7344 168.057 63.7344C167.479 63.7344 167.027 64.0195 166.701 64.5898C166.376 65.1576 166.213 65.9609 166.213 67C166.213 67.6927 166.286 68.2812 166.432 68.7656C166.577 69.25 166.787 69.6185 167.061 69.8711C167.337 70.1237 167.669 70.25 168.057 70.25Z" fill="black"/>
<path d="M195.027 63V71H194.059V64.0156H194.012L192.059 65.3125V64.3281L194.059 63H195.027ZM200.141 63V71H199.172V64.0156H199.125L197.172 65.3125V64.3281L199.172 63H200.141Z" fill="black"/>
<path d="M104.584 38V46H103.615V39.0156H103.568L101.615 40.3125V39.3281L103.615 38H104.584Z" fill="black"/>
<path d="M131.998 46V45.2969L134.639 42.4062C134.949 42.0677 135.204 41.7734 135.404 41.5234C135.605 41.2708 135.753 41.0339 135.85 40.8125C135.949 40.5885 135.998 40.3542 135.998 40.1094C135.998 39.8281 135.93 39.5846 135.795 39.3789C135.662 39.1732 135.48 39.0143 135.248 38.9023C135.016 38.7904 134.756 38.7344 134.467 38.7344C134.16 38.7344 133.891 38.7982 133.662 38.9258C133.436 39.0508 133.26 39.2266 133.135 39.4531C133.012 39.6797 132.951 39.9453 132.951 40.25H132.029C132.029 39.7812 132.137 39.3698 132.354 39.0156C132.57 38.6615 132.864 38.3854 133.236 38.1875C133.611 37.9896 134.032 37.8906 134.498 37.8906C134.967 37.8906 135.382 37.9896 135.744 38.1875C136.106 38.3854 136.39 38.6523 136.596 38.9883C136.801 39.3242 136.904 39.6979 136.904 40.1094C136.904 40.4036 136.851 40.6914 136.744 40.9727C136.64 41.2513 136.458 41.5625 136.197 41.9062C135.939 42.2474 135.581 42.6641 135.123 43.1562L133.326 45.0781V45.1406H137.045V46H131.998Z" fill="black"/>
<path d="M165.529 46.1094C165.014 46.1094 164.554 46.0208 164.15 45.8437C163.749 45.6667 163.43 45.4206 163.193 45.1055C162.959 44.7878 162.831 44.4193 162.811 44H163.795C163.816 44.2578 163.904 44.4805 164.061 44.668C164.217 44.8529 164.421 44.9961 164.674 45.0977C164.926 45.1992 165.206 45.25 165.514 45.25C165.857 45.25 166.162 45.1901 166.428 45.0703C166.693 44.9505 166.902 44.7839 167.053 44.5703C167.204 44.3568 167.279 44.1094 167.279 43.8281C167.279 43.5339 167.206 43.2747 167.061 43.0508C166.915 42.8242 166.701 42.6471 166.42 42.5195C166.139 42.3919 165.795 42.3281 165.389 42.3281H164.748V41.4687H165.389C165.706 41.4687 165.985 41.4115 166.225 41.2969C166.467 41.1823 166.656 41.0208 166.791 40.8125C166.929 40.6042 166.998 40.3594 166.998 40.0781C166.998 39.8073 166.938 39.5716 166.818 39.3711C166.699 39.1706 166.529 39.0143 166.311 38.9023C166.094 38.7904 165.839 38.7344 165.545 38.7344C165.269 38.7344 165.008 38.7852 164.764 38.8867C164.521 38.9857 164.324 39.1302 164.17 39.3203C164.016 39.5078 163.933 39.7344 163.92 40H162.982C162.998 39.5807 163.124 39.2135 163.361 38.8984C163.598 38.5807 163.908 38.3333 164.291 38.1562C164.676 37.9792 165.1 37.8906 165.561 37.8906C166.055 37.8906 166.48 37.9909 166.834 38.1914C167.188 38.3893 167.46 38.651 167.65 38.9766C167.84 39.3021 167.936 39.6536 167.936 40.0313C167.936 40.4818 167.817 40.8659 167.58 41.1836C167.346 41.5013 167.027 41.7214 166.623 41.8438V41.9062C167.128 41.9896 167.523 42.2044 167.807 42.5508C168.09 42.8945 168.232 43.3203 168.232 43.8281C168.232 44.263 168.114 44.6536 167.877 45C167.643 45.3437 167.322 45.6146 166.916 45.8125C166.51 46.0104 166.048 46.1094 165.529 46.1094Z" fill="black"/>
<path d="M193.612 44.3594V43.5625L197.127 38H197.706V39.2344H197.315L194.659 43.4375V43.5H199.393V44.3594H193.612ZM197.377 46V44.1172V43.7461V38H198.299V46H197.377Z" fill="black"/>
<line y1="23.5" x2="207" y2="23.5" stroke="black"/>
<path d="M2.64941 12.9375V10.1406H3.16504C3.34212 9.97917 3.50879 9.7513 3.66504 9.45703C3.82389 9.16016 3.95801 8.76432 4.06738 8.26953C4.17936 7.77214 4.25358 7.14062 4.29004 6.375L4.46191 3H9.21191V10.1406H10.1338V12.9219H9.21191V11H3.57129V12.9375H2.64941ZM4.32129 10.1406H8.29004V3.85937H5.33691L5.21191 6.375C5.18066 6.95833 5.12598 7.48698 5.04785 7.96094C4.96973 8.43229 4.86947 8.85026 4.74707 9.21484C4.62467 9.57682 4.48275 9.88542 4.32129 10.1406ZM18.0352 5.5H17.0664C17.0091 5.22135 16.9089 4.97656 16.7656 4.76562C16.625 4.55469 16.4531 4.3776 16.25 4.23438C16.0495 4.08854 15.8268 3.97917 15.582 3.90625C15.3372 3.83333 15.082 3.79687 14.8164 3.79687C14.332 3.79687 13.8932 3.91927 13.5 4.16406C13.1094 4.40885 12.7982 4.76953 12.5664 5.24609C12.3372 5.72266 12.2227 6.30729 12.2227 7C12.2227 7.69271 12.3372 8.27734 12.5664 8.75391C12.7982 9.23047 13.1094 9.59115 13.5 9.83594C13.8932 10.0807 14.332 10.2031 14.8164 10.2031C15.082 10.2031 15.3372 10.1667 15.582 10.0937C15.8268 10.0208 16.0495 9.91276 16.25 9.76953C16.4531 9.6237 16.625 9.44531 16.7656 9.23437C16.9089 9.02083 17.0091 8.77604 17.0664 8.5H18.0352C17.9622 8.90885 17.8294 9.27474 17.6367 9.59766C17.444 9.92057 17.2044 10.1953 16.918 10.4219C16.6315 10.6458 16.3099 10.8164 15.9531 10.9336C15.599 11.0508 15.2201 11.1094 14.8164 11.1094C14.1341 11.1094 13.5273 10.9427 12.9961 10.6094C12.4648 10.276 12.0469 9.80208 11.7422 9.1875C11.4375 8.57292 11.2852 7.84375 11.2852 7C11.2852 6.15625 11.4375 5.42708 11.7422 4.8125C12.0469 4.19792 12.4648 3.72396 12.9961 3.39062C13.5273 3.05729 14.1341 2.89062 14.8164 2.89062C15.2201 2.89062 15.599 2.94922 15.9531 3.06641C16.3099 3.18359 16.6315 3.35547 16.918 3.58203C17.2044 3.80599 17.444 4.07943 17.6367 4.40234C17.8294 4.72266 17.9622 5.08854 18.0352 5.5Z" fill="black"/>
<path d="M40.9033 5.5H39.9346C39.8773 5.22135 39.777 4.97656 39.6338 4.76562C39.4932 4.55469 39.3213 4.3776 39.1182 4.23438C38.9176 4.08854 38.695 3.97917 38.4502 3.90625C38.2054 3.83333 37.9502 3.79687 37.6846 3.79687C37.2002 3.79687 36.7614 3.91927 36.3682 4.16406C35.9775 4.40885 35.6663 4.76953 35.4346 5.24609C35.2054 5.72266 35.0908 6.30729 35.0908 7C35.0908 7.69271 35.2054 8.27734 35.4346 8.75391C35.6663 9.23047 35.9775 9.59115 36.3682 9.83594C36.7614 10.0807 37.2002 10.2031 37.6846 10.2031C37.9502 10.2031 38.2054 10.1667 38.4502 10.0937C38.695 10.0208 38.9176 9.91276 39.1182 9.76953C39.3213 9.6237 39.4932 9.44531 39.6338 9.23437C39.777 9.02083 39.8773 8.77604 39.9346 8.5H40.9033C40.8304 8.90885 40.6976 9.27474 40.5049 9.59766C40.3122 9.92057 40.0726 10.1953 39.7861 10.4219C39.4997 10.6458 39.1781 10.8164 38.8213 10.9336C38.4671 11.0508 38.0882 11.1094 37.6846 11.1094C37.0023 11.1094 36.3955 10.9427 35.8643 10.6094C35.333 10.276 34.915 9.80208 34.6104 9.1875C34.3057 8.57292 34.1533 7.84375 34.1533 7C34.1533 6.15625 34.3057 5.42708 34.6104 4.8125C34.915 4.19792 35.333 3.72396 35.8643 3.39062C36.3955 3.05729 37.0023 2.89062 37.6846 2.89062C38.0882 2.89062 38.4671 2.94922 38.8213 3.06641C39.1781 3.18359 39.4997 3.35547 39.7861 3.58203C40.0726 3.80599 40.3122 4.07943 40.5049 4.40234C40.6976 4.72266 40.8304 5.08854 40.9033 5.5ZM48.9063 5.5H47.9375C47.8802 5.22135 47.7799 4.97656 47.6367 4.76562C47.4961 4.55469 47.3242 4.3776 47.1211 4.23438C46.9206 4.08854 46.6979 3.97917 46.4531 3.90625C46.2083 3.83333 45.9531 3.79687 45.6875 3.79687C45.2031 3.79687 44.7643 3.91927 44.3711 4.16406C43.9805 4.40885 43.6693 4.76953 43.4375 5.24609C43.2083 5.72266 43.0938 6.30729 43.0938 7C43.0938 7.69271 43.2083 8.27734 43.4375 8.75391C43.6693 9.23047 43.9805 9.59115 44.3711 9.83594C44.7643 10.0807 45.2031 10.2031 45.6875 10.2031C45.9531 10.2031 46.2083 10.1667 46.4531 10.0937C46.6979 10.0208 46.9206 9.91276 47.1211 9.76953C47.3242 9.6237 47.4961 9.44531 47.6367 9.23437C47.7799 9.02083 47.8802 8.77604 47.9375 8.5H48.9063C48.8333 8.90885 48.7005 9.27474 48.5078 9.59766C48.3151 9.92057 48.0755 10.1953 47.7891 10.4219C47.5026 10.6458 47.181 10.8164 46.8242 10.9336C46.4701 11.0508 46.0911 11.1094 45.6875 11.1094C45.0052 11.1094 44.3984 10.9427 43.8672 10.6094C43.3359 10.276 42.918 9.80208 42.6133 9.1875C42.3086 8.57292 42.1563 7.84375 42.1563 7C42.1563 6.15625 42.3086 5.42708 42.6133 4.8125C42.918 4.19792 43.3359 3.72396 43.8672 3.39062C44.3984 3.05729 45.0052 2.89062 45.6875 2.89062C46.0911 2.89062 46.4701 2.94922 46.8242 3.06641C47.181 3.18359 47.5026 3.35547 47.7891 3.58203C48.0755 3.80599 48.3151 4.07943 48.5078 4.40234C48.7005 4.72266 48.8333 5.08854 48.9063 5.5Z" fill="black"/>
<path d="M71.9033 5.5H70.9346C70.8773 5.22135 70.777 4.97656 70.6338 4.76562C70.4932 4.55469 70.3213 4.3776 70.1182 4.23438C69.9176 4.08854 69.695 3.97917 69.4502 3.90625C69.2054 3.83333 68.9502 3.79687 68.6846 3.79687C68.2002 3.79687 67.7614 3.91927 67.3682 4.16406C66.9775 4.40885 66.6663 4.76953 66.4346 5.24609C66.2054 5.72266 66.0908 6.30729 66.0908 7C66.0908 7.69271 66.2054 8.27734 66.4346 8.75391C66.6663 9.23047 66.9775 9.59115 67.3682 9.83594C67.7614 10.0807 68.2002 10.2031 68.6846 10.2031C68.9502 10.2031 69.2054 10.1667 69.4502 10.0937C69.695 10.0208 69.9176 9.91276 70.1182 9.76953C70.3213 9.6237 70.4932 9.44531 70.6338 9.23437C70.777 9.02083 70.8773 8.77604 70.9346 8.5H71.9033C71.8304 8.90885 71.6976 9.27474 71.5049 9.59766C71.3122 9.92057 71.0726 10.1953 70.7861 10.4219C70.4997 10.6458 70.1781 10.8164 69.8213 10.9336C69.4671 11.0508 69.0882 11.1094 68.6846 11.1094C68.0023 11.1094 67.3955 10.9427 66.8643 10.6094C66.333 10.276 65.915 9.80208 65.6104 9.1875C65.3057 8.57292 65.1533 7.84375 65.1533 7C65.1533 6.15625 65.3057 5.42708 65.6104 4.8125C65.915 4.19792 66.333 3.72396 66.8643 3.39062C67.3955 3.05729 68.0023 2.89062 68.6846 2.89062C69.0882 2.89062 69.4671 2.94922 69.8213 3.06641C70.1781 3.18359 70.4997 3.35547 70.7861 3.58203C71.0726 3.80599 71.3122 4.07943 71.5049 4.40234C71.6976 4.72266 71.8304 5.08854 71.9033 5.5ZM79.9063 5.5H78.9375C78.8802 5.22135 78.7799 4.97656 78.6367 4.76562C78.4961 4.55469 78.3242 4.3776 78.1211 4.23438C77.9206 4.08854 77.6979 3.97917 77.4531 3.90625C77.2083 3.83333 76.9531 3.79687 76.6875 3.79687C76.2031 3.79687 75.7643 3.91927 75.3711 4.16406C74.9805 4.40885 74.6693 4.76953 74.4375 5.24609C74.2083 5.72266 74.0938 6.30729 74.0938 7C74.0938 7.69271 74.2083 8.27734 74.4375 8.75391C74.6693 9.23047 74.9805 9.59115 75.3711 9.83594C75.7643 10.0807 76.2031 10.2031 76.6875 10.2031C76.9531 10.2031 77.2083 10.1667 77.4531 10.0937C77.6979 10.0208 77.9206 9.91276 78.1211 9.76953C78.3242 9.6237 78.4961 9.44531 78.6367 9.23437C78.7799 9.02083 78.8802 8.77604 78.9375 8.5H79.9063C79.8333 8.90885 79.7005 9.27474 79.5078 9.59766C79.3151 9.92057 79.0755 10.1953 78.7891 10.4219C78.5026 10.6458 78.181 10.8164 77.8242 10.9336C77.4701 11.0508 77.0911 11.1094 76.6875 11.1094C76.0052 11.1094 75.3984 10.9427 74.8672 10.6094C74.3359 10.276 73.918 9.80208 73.6133 9.1875C73.3086 8.57292 73.1563 7.84375 73.1563 7C73.1563 6.15625 73.3086 5.42708 73.6133 4.8125C73.918 4.19792 74.3359 3.72396 74.8672 3.39062C75.3984 3.05729 76.0052 2.89062 76.6875 2.89062C77.0911 2.89062 77.4701 2.94922 77.8242 3.06641C78.181 3.18359 78.5026 3.35547 78.7891 3.58203C79.0755 3.80599 79.3151 4.07943 79.5078 4.40234C79.7005 4.72266 79.8333 5.08854 79.9063 5.5Z" fill="black"/>
<path d="M96.8418 11V3H101.67V3.85937H97.8105V6.35938H99.8418C100.415 6.35938 100.898 6.45312 101.291 6.64062C101.687 6.82812 101.986 7.09245 102.189 7.43359C102.395 7.77474 102.498 8.17708 102.498 8.64062C102.498 9.10417 102.395 9.51302 102.189 9.86719C101.986 10.2214 101.687 10.4987 101.291 10.6992C100.898 10.8997 100.415 11 99.8418 11H96.8418ZM97.8105 10.1562H99.8418C100.206 10.1562 100.515 10.0833 100.768 9.9375C101.023 9.78906 101.215 9.59896 101.346 9.36719C101.479 9.13281 101.545 8.88542 101.545 8.625C101.545 8.24219 101.398 7.91276 101.104 7.63672C100.809 7.35807 100.389 7.21875 99.8418 7.21875H97.8105V10.1562ZM110.53 5.5H109.562C109.504 5.22135 109.404 4.97656 109.261 4.76562C109.12 4.55469 108.948 4.3776 108.745 4.23438C108.545 4.08854 108.322 3.97917 108.077 3.90625C107.832 3.83333 107.577 3.79687 107.312 3.79687C106.827 3.79687 106.388 3.91927 105.995 4.16406C105.604 4.40885 105.293 4.76953 105.062 5.24609C104.832 5.72266 104.718 6.30729 104.718 7C104.718 7.69271 104.832 8.27734 105.062 8.75391C105.293 9.23047 105.604 9.59115 105.995 9.83594C106.388 10.0807 106.827 10.2031 107.312 10.2031C107.577 10.2031 107.832 10.1667 108.077 10.0937C108.322 10.0208 108.545 9.91276 108.745 9.76953C108.948 9.6237 109.12 9.44531 109.261 9.23437C109.404 9.02083 109.504 8.77604 109.562 8.5H110.53C110.457 8.90885 110.325 9.27474 110.132 9.59766C109.939 9.92057 109.7 10.1953 109.413 10.4219C109.127 10.6458 108.805 10.8164 108.448 10.9336C108.094 11.0508 107.715 11.1094 107.312 11.1094C106.629 11.1094 106.022 10.9427 105.491 10.6094C104.96 10.276 104.542 9.80208 104.237 9.1875C103.933 8.57292 103.78 7.84375 103.78 7C103.78 6.15625 103.933 5.42708 104.237 4.8125C104.542 4.19792 104.96 3.72396 105.491 3.39062C106.022 3.05729 106.629 2.89062 107.312 2.89062C107.715 2.89062 108.094 2.94922 108.448 3.06641C108.805 3.18359 109.127 3.35547 109.413 3.58203C109.7 3.80599 109.939 4.07943 110.132 4.40234C110.325 4.72266 110.457 5.08854 110.53 5.5Z" fill="black"/>
<path d="M133.903 5.5H132.935C132.877 5.22135 132.777 4.97656 132.634 4.76562C132.493 4.55469 132.321 4.3776 132.118 4.23438C131.918 4.08854 131.695 3.97917 131.45 3.90625C131.205 3.83333 130.95 3.79687 130.685 3.79687C130.2 3.79687 129.761 3.91927 129.368 4.16406C128.978 4.40885 128.666 4.76953 128.435 5.24609C128.205 5.72266 128.091 6.30729 128.091 7C128.091 7.69271 128.205 8.27734 128.435 8.75391C128.666 9.23047 128.978 9.59115 129.368 9.83594C129.761 10.0807 130.2 10.2031 130.685 10.2031C130.95 10.2031 131.205 10.1667 131.45 10.0937C131.695 10.0208 131.918 9.91276 132.118 9.76953C132.321 9.6237 132.493 9.44531 132.634 9.23437C132.777 9.02083 132.877 8.77604 132.935 8.5H133.903C133.83 8.90885 133.698 9.27474 133.505 9.59766C133.312 9.92057 133.073 10.1953 132.786 10.4219C132.5 10.6458 132.178 10.8164 131.821 10.9336C131.467 11.0508 131.088 11.1094 130.685 11.1094C130.002 11.1094 129.396 10.9427 128.864 10.6094C128.333 10.276 127.915 9.80208 127.61 9.1875C127.306 8.57292 127.153 7.84375 127.153 7C127.153 6.15625 127.306 5.42708 127.61 4.8125C127.915 4.19792 128.333 3.72396 128.864 3.39062C129.396 3.05729 130.002 2.89062 130.685 2.89062C131.088 2.89062 131.467 2.94922 131.821 3.06641C132.178 3.18359 132.5 3.35547 132.786 3.58203C133.073 3.80599 133.312 4.07943 133.505 4.40234C133.698 4.72266 133.83 5.08854 133.903 5.5ZM141.906 5.5H140.938C140.88 5.22135 140.78 4.97656 140.637 4.76562C140.496 4.55469 140.324 4.3776 140.121 4.23438C139.921 4.08854 139.698 3.97917 139.453 3.90625C139.208 3.83333 138.953 3.79687 138.688 3.79687C138.203 3.79687 137.764 3.91927 137.371 4.16406C136.98 4.40885 136.669 4.76953 136.438 5.24609C136.208 5.72266 136.094 6.30729 136.094 7C136.094 7.69271 136.208 8.27734 136.438 8.75391C136.669 9.23047 136.98 9.59115 137.371 9.83594C137.764 10.0807 138.203 10.2031 138.688 10.2031C138.953 10.2031 139.208 10.1667 139.453 10.0937C139.698 10.0208 139.921 9.91276 140.121 9.76953C140.324 9.6237 140.496 9.44531 140.637 9.23437C140.78 9.02083 140.88 8.77604 140.938 8.5H141.906C141.833 8.90885 141.701 9.27474 141.508 9.59766C141.315 9.92057 141.076 10.1953 140.789 10.4219C140.503 10.6458 140.181 10.8164 139.824 10.9336C139.47 11.0508 139.091 11.1094 138.688 11.1094C138.005 11.1094 137.398 10.9427 136.867 10.6094C136.336 10.276 135.918 9.80208 135.613 9.1875C135.309 8.57292 135.156 7.84375 135.156 7C135.156 6.15625 135.309 5.42708 135.613 4.8125C135.918 4.19792 136.336 3.72396 136.867 3.39062C137.398 3.05729 138.005 2.89062 138.688 2.89062C139.091 2.89062 139.47 2.94922 139.824 3.06641C140.181 3.18359 140.503 3.35547 140.789 3.58203C141.076 3.80599 141.315 4.07943 141.508 4.40234C141.701 4.72266 141.833 5.08854 141.906 5.5Z" fill="black"/>
<path d="M161.089 3V11H160.121V3H161.089ZM155.683 11L158.277 6.82812L155.902 3H157.074L159.152 6.54687H162.074L164.152 3H165.324L162.933 6.84375L165.527 11H164.417L162.246 7.45312H158.964L156.777 11H155.683ZM166.796 3H167.953L170.671 9.64062H170.765L173.484 3H174.64V11H173.734V4.92188H173.656L171.156 11H170.281L167.781 4.92188H167.703V11H166.796V3Z" fill="black"/>
<path d="M193.045 3V11H192.077V3H193.045ZM187.639 11L190.233 6.82812L187.858 3H189.03L191.108 6.54687H194.03L196.108 3H197.28L194.889 6.84375L197.483 11H196.374L194.202 7.45312H190.92L188.733 11H187.639ZM205.061 5.5H204.092C204.035 5.22135 203.935 4.97656 203.792 4.76562C203.651 4.55469 203.479 4.3776 203.276 4.23438C203.075 4.08854 202.853 3.97917 202.608 3.90625C202.363 3.83333 202.108 3.79687 201.842 3.79687C201.358 3.79687 200.919 3.91927 200.526 4.16406C200.135 4.40885 199.824 4.76953 199.592 5.24609C199.363 5.72266 199.249 6.30729 199.249 7C199.249 7.69271 199.363 8.27734 199.592 8.75391C199.824 9.23047 200.135 9.59115 200.526 9.83594C200.919 10.0807 201.358 10.2031 201.842 10.2031C202.108 10.2031 202.363 10.1667 202.608 10.0937C202.853 10.0208 203.075 9.91276 203.276 9.76953C203.479 9.6237 203.651 9.44531 203.792 9.23437C203.935 9.02083 204.035 8.77604 204.092 8.5H205.061C204.988 8.90885 204.855 9.27474 204.663 9.59766C204.47 9.92057 204.23 10.1953 203.944 10.4219C203.657 10.6458 203.336 10.8164 202.979 10.9336C202.625 11.0508 202.246 11.1094 201.842 11.1094C201.16 11.1094 200.553 10.9427 200.022 10.6094C199.491 10.276 199.073 9.80208 198.768 9.1875C198.463 8.57292 198.311 7.84375 198.311 7C198.311 6.15625 198.463 5.42708 198.768 4.8125C199.073 4.19792 199.491 3.72396 200.022 3.39062C200.553 3.05729 201.16 2.89062 201.842 2.89062C202.246 2.89062 202.625 2.94922 202.979 3.06641C203.336 3.18359 203.657 3.35547 203.944 3.58203C204.23 3.80599 204.47 4.07943 204.663 4.40234C204.855 4.72266 204.988 5.08854 205.061 5.5Z" fill="black"/>
<path d="M103.51 109.737C94.9525 101.783 86.4119 112.916 93.8361 120.868L103.51 132L113.183 120.868C120.575 112.916 112.034 101.783 103.51 109.737Z" stroke="#FF0000" stroke-opacity="0.74" stroke-width="2" stroke-linecap="round" stroke-linejoin="round"/>
</svg>
